<svg version="1.1" id="Layer_1" xmlns="http://www.w3.org/2000/svg" xmlns:xlink="http://www.w3.org/1999/xlink" x="0px" y="0px"
	 width="100%" viewBox="0 0 1024 1024" enable-background="new 0 0 1024 1024" xml:space="preserve">
<path fill="#000000" opacity="1.000000" stroke="none" 
	d="
M446.020660,820.256958 
	C404.785614,809.254150 367.954712,790.525940 335.726837,763.133789 
	C311.140106,742.236328 290.925934,717.589172 274.726562,689.666870 
	C256.054535,657.482544 244.370010,622.825562 238.905884,586.127991 
	C235.442642,562.868469 235.416107,539.450745 237.513992,516.003784 
	C240.708694,480.298584 250.640945,446.481079 266.427094,414.468079 
	C280.207520,386.522491 298.067383,361.298309 319.738251,338.781952 
	C366.177582,290.530853 412.477478,242.145477 458.821259,193.802429 
	C473.230682,178.771378 487.590820,163.693069 501.986664,148.648987 
	C509.687988,140.600891 516.043640,140.393478 523.696167,148.360687 
	C567.435242,193.898193 611.071594,239.534393 654.810181,285.072388 
	C675.583130,306.700012 697.069519,327.681488 716.815796,350.245270 
	C752.922485,391.503784 775.718384,439.366119 785.399475,493.390320 
	C788.925232,513.065369 791.052734,532.901306 790.182861,552.894043 
	C786.575928,635.792908 755.013916,705.878357 692.638794,761.067078 
	C653.184082,795.976135 606.935791,817.195557 554.761902,825.516357 
	C535.069702,828.656982 515.300110,829.030090 495.542450,828.130676 
	C478.964844,827.375916 462.540558,824.567627 446.020660,820.256958 
M409.029327,295.520325 
	C394.154999,311.035553 379.397675,326.665070 364.377045,342.037354 
	C345.158752,361.705688 325.820282,381.175079 310.960419,404.629883 
	C287.519562,441.628815 273.715149,481.831940 270.562225,525.429871 
	C269.280823,543.148926 269.801666,560.986450 272.165588,578.748779 
	C275.728149,605.517517 283.043793,631.087219 294.687103,655.430298 
	C297.822083,661.984680 303.405701,664.424500 310.700104,663.079712 
	C316.573669,661.996826 321.771210,659.426819 326.775879,656.457520 
	C345.502319,645.347290 365.463959,642.052063 386.764709,646.450073 
	C388.476776,646.803589 390.652161,647.642883 392.005890,646.103638 
	C393.667938,644.213867 391.842896,642.324402 391.063477,640.617188 
	C379.512878,615.316895 367.792175,590.093689 356.355347,564.742310 
	C351.085388,553.060608 344.819305,541.797852 340.643402,529.659973 
	C337.368958,520.142395 341.006470,513.330017 350.394836,510.170990 
	C360.959015,506.616272 371.559662,503.168304 382.173157,499.763458 
	C384.952209,498.871918 387.246155,497.799316 386.526794,494.284729 
	C385.207886,487.840851 385.773346,481.322327 385.840698,474.844360 
	C386.058960,453.854065 385.468353,432.854156 386.626038,411.873108 
	C386.982422,405.413879 389.439240,402.376892 395.762543,401.616852 
	C398.893982,401.240479 402.060150,400.999939 405.212555,400.977844 
	C417.211548,400.893707 429.212677,400.819641 441.210175,400.968658 
	C445.276398,401.019165 446.783020,399.621979 446.721375,395.443451 
	C446.519836,381.780212 446.638306,368.112091 446.651520,354.445862 
	C446.660553,345.090302 450.164673,341.653992 459.694977,341.640900 
	C470.194641,341.626495 480.697144,341.490601 491.192596,341.699585 
	C495.243805,341.780212 496.862305,340.557831 496.724243,336.319214 
	C496.464050,328.328125 496.571045,320.320892 496.691986,312.322876 
	C496.793823,305.585449 500.628418,301.807343 507.262695,301.683990 
	C510.928009,301.615814 514.596130,301.627869 518.262024,301.677643 
	C525.697327,301.778564 529.269470,305.313934 529.329407,312.731659 
	C529.393982,320.730896 529.479065,328.734039 529.293762,336.729431 
	C529.208740,340.397644 530.496338,341.759125 534.210144,341.699707 
	C544.707092,341.531769 555.208496,341.635712 565.708191,341.647003 
	C575.441956,341.657471 579.295166,345.445190 579.330017,355.174103 
	C579.375427,367.840210 579.334229,380.506592 579.343384,393.172852 
	C579.348999,400.906494 579.362427,400.783661 586.885437,400.928711 
	C601.369812,401.208008 615.878052,400.095398 630.339783,401.647064 
	C635.438660,402.194153 638.479309,404.908112 639.442566,410.044769 
	C639.937195,412.682465 640.194519,415.298828 640.195068,417.976257 
	C640.200378,443.141937 640.331421,468.308136 640.180115,493.472717 
	C640.155579,497.557281 641.621277,499.367340 645.381531,500.537109 
	C656.025879,503.848328 666.621826,507.337280 677.128906,511.060852 
	C684.862122,513.801514 688.179871,520.928650 685.638977,528.767944 
	C684.616333,531.923279 683.208435,534.965942 681.821350,537.989014 
	C665.708862,573.106506 649.560730,608.207642 633.457581,643.329407 
	C632.887329,644.573120 631.571228,645.792847 632.773865,647.577393 
	C633.716736,647.451233 634.700500,647.400818 635.644958,647.181274 
	C658.735779,641.814270 680.526184,644.648804 700.832581,657.313293 
	C705.373352,660.145203 710.333008,662.096069 715.608887,663.196106 
	C722.716553,664.677917 728.503235,662.007812 731.661072,655.458679 
	C745.701538,626.340332 753.640198,595.507935 755.437988,563.351807 
	C756.662415,541.451538 755.959717,519.516602 751.836731,497.740112 
	C742.411804,447.960693 720.617310,404.367828 685.986389,367.657440 
	C635.902649,314.566376 585.082581,262.168884 534.429871,209.617004 
	C527.409180,202.333130 519.550110,195.857422 511.620697,188.587189 
	C478.193634,223.415924 443.847198,259.202576 409.029327,295.520325 
M631.439514,567.998840 
	C636.294250,557.660767 641.148987,547.322693 646.388855,536.164673 
	C607.079285,523.401978 568.679382,510.934601 529.346375,498.164276 
	C529.346375,502.010254 529.345642,504.485413 529.346497,506.960541 
	C529.354187,530.457153 529.380798,553.953796 529.359192,577.450439 
	C529.352234,584.952942 526.143738,589.751526 519.683777,592.206177 
	C507.838440,596.707153 496.709351,589.067261 496.658234,576.364685 
	C496.563721,552.876648 496.977417,529.384949 495.907745,505.905090 
	C495.574493,498.590118 495.248566,498.216675 488.492950,500.447418 
	C472.381317,505.767670 456.265350,511.074951 440.164215,516.426819 
	C422.174347,522.406433 404.227081,528.516235 386.196808,534.370789 
	C381.867188,535.776672 380.454193,537.599670 382.961853,541.840088 
	C384.731384,544.832336 385.969330,548.139893 387.433105,551.312012 
	C404.246002,587.747070 421.098175,624.164246 437.804352,660.648193 
	C439.492096,664.333923 441.580841,665.941345 445.764557,665.711609 
	C455.436005,665.180359 463.685577,661.054993 471.784821,656.336731 
	C484.067810,649.181274 497.174805,644.855042 511.518066,644.634155 
	C527.314514,644.390991 541.618958,649.222412 555.044189,657.166382 
	C562.862915,661.792969 571.074341,665.126465 580.315613,665.692627 
	C584.474426,665.947449 586.560974,664.342590 588.277832,660.620300 
	C602.438232,629.917664 616.792358,599.304382 631.439514,567.998840 
M468.977081,726.479736 
	C471.451019,725.102722 473.894379,723.667175 476.403839,722.358215 
	C492.009766,714.217896 508.364075,710.144043 525.980835,713.731628 
	C535.345581,715.638672 544.072937,719.240051 552.294189,724.170959 
	C561.975159,729.977417 572.181091,734.258484 583.823975,733.653381 
	C594.049377,733.121887 603.164551,729.314941 611.987732,724.417786 
	C634.857361,711.724182 658.545654,708.109924 683.294800,718.639832 
	C686.177063,719.866150 687.935425,719.028137 689.727905,716.885193 
	C694.748840,710.882751 699.862244,704.957642 704.908508,698.976257 
	C705.627930,698.123535 706.552917,697.233398 705.697205,695.707581 
	C698.865784,694.899048 692.862915,691.614746 687.111084,687.956970 
	C667.192444,675.290222 647.325317,675.153931 626.807434,686.846680 
	C608.031250,697.547058 587.886658,702.015930 566.313110,697.266724 
	C554.284180,694.618774 543.706238,688.567017 532.900391,683.020325 
	C521.138245,676.982788 509.015686,676.158875 496.817596,681.561707 
	C491.655457,683.848083 486.802460,686.823486 481.751984,689.372803 
	C468.302307,696.161621 454.095551,700.025085 438.966370,698.995361 
	C424.472870,698.008911 411.103333,693.129761 398.438568,686.065674 
	C379.245178,675.359985 360.140900,675.301392 341.192535,686.933533 
	C334.550995,691.010803 327.845032,695.080750 318.757599,696.020996 
	C325.405273,703.862244 331.499939,711.032898 337.569855,718.224426 
	C339.044189,719.971191 340.556427,718.997009 342.083069,718.406494 
	C349.861816,715.398010 357.785461,713.143372 366.197418,712.619568 
	C384.476593,711.481262 400.954987,716.857483 416.604065,725.782837 
	C433.599182,735.475769 450.865967,736.773254 468.977081,726.479736 
M420.150665,459.500031 
	C420.327515,468.356415 419.707092,477.255981 420.601715,486.571411 
	C422.904114,485.946411 424.172913,485.654297 425.408600,485.258881 
	C452.654999,476.539734 479.912476,467.854767 507.125427,459.032318 
	C511.286072,457.683441 515.096436,457.746307 519.255676,459.136139 
	C537.549133,465.249115 555.913940,471.149139 574.266418,477.084534 
	C584.336060,480.341156 594.432434,483.514771 604.323364,486.664215 
	C606.196228,484.368652 605.626404,482.286530 605.635986,480.369476 
	C605.699036,467.707550 605.679443,455.045197 605.670349,442.382965 
	C605.665344,435.414520 605.650879,435.397034 598.893921,435.394043 
	C580.400391,435.385895 561.906921,435.395874 543.413391,435.395020 
	C504.427063,435.393219 465.440460,435.459656 426.454834,435.294739 
	C421.700684,435.274597 419.826202,436.682098 420.079193,441.509827 
	C420.375244,447.158997 420.150421,452.835449 420.150665,459.500031 
M553.206299,761.480225 
	C546.807800,759.419861 541.145935,755.888977 535.368896,752.579224 
	C523.345703,745.690979 510.949890,743.105530 497.842987,749.525452 
	C494.554169,751.136353 491.207855,752.662964 488.054352,754.512024 
	C459.331726,771.353516 430.479614,772.198853 401.468719,755.321716 
	C397.139404,752.803101 392.753082,750.383118 388.050629,748.691772 
	C382.371490,746.649048 376.561035,745.012573 369.919403,745.720825 
	C460.345306,817.960388 589.828613,803.346497 656.180359,745.959167 
	C644.284607,745.198547 634.145630,750.616211 624.025146,756.171448 
	C601.512573,768.529053 578.216553,771.398254 553.206299,761.480225 
M480.521332,398.699280 
	C481.157776,400.456238 482.647644,400.624481 484.188843,400.624634 
	C503.147980,400.626556 522.107178,400.597076 541.066162,400.635864 
	C543.801941,400.641449 544.955139,399.495605 544.988281,396.768982 
	C545.054932,391.285217 545.146301,385.794464 545.500244,380.324219 
	C545.709778,377.087128 544.318176,376.339355 541.403748,376.416290 
	C535.257568,376.578522 529.104492,376.489777 522.954285,376.487915 
	C510.328430,376.484100 497.702057,376.531158 485.077087,376.420349 
	C481.501373,376.389008 479.989410,377.594574 480.203796,381.380524 
	C480.513641,386.852875 480.350311,392.352081 480.521332,398.699280 
z"/>
</svg>