<?xml version="1.0" encoding="UTF-8"?>
<svg version="1.1" xmlns="http://www.w3.org/2000/svg" width="378" height="233">
<path d="M0 0 C0.74334595 0.00565979 1.48669189 0.01131958 2.25256348 0.01715088 C4.59615139 0.03930678 6.93813471 0.08945685 9.28125 0.140625 C10.88279021 0.16071717 12.48435471 0.17896315 14.0859375 0.1953125 C17.98498081 0.23910229 21.88284466 0.30797779 25.78125 0.390625 C25.19742657 3.86976719 24.02964023 5.5143648 21.54795837 7.98468018 C20.85662308 8.68013947 20.16528778 9.37559875 19.45300293 10.09213257 C18.68983765 10.84451202 17.92667236 11.59689148 17.14038086 12.37207031 C16.34044205 13.1724472 15.54050323 13.9728241 14.71632385 14.79745483 C12.06662835 17.4450579 9.40645977 20.08187264 6.74609375 22.71875 C4.90841029 24.55083916 3.07138743 26.38359114 1.23500061 28.21697998 C-3.10854693 32.55023775 -7.45871037 36.87674926 -11.81214184 41.20007396 C-17.25461365 46.60572198 -22.68689279 52.0215811 -28.11914062 57.4375 C-37.80924942 67.09839101 -47.51467388 76.74371887 -57.21875 86.390625 C-8.70875 86.885625 -8.70875 86.885625 40.78125 87.390625 C39.44677431 92.72852775 36.61300401 95.03713433 32.78125 98.828125 C32.14574219 99.48361328 31.51023438 100.13910156 30.85546875 100.81445312 C30.21222656 101.45705078 29.56898438 102.09964844 28.90625 102.76171875 C28.33132812 103.33849365 27.75640625 103.91526855 27.1640625 104.50952148 C19.41763896 110.62491015 13.23636942 112.1196696 3.42431641 111.98999023 C2.2183783 111.99393295 1.01244019 111.99787567 -0.2300415 112.00193787 C-3.51099761 112.00746975 -6.79089084 111.99086493 -10.0717082 111.96345782 C-13.51357691 111.93949815 -16.95543214 111.94257184 -20.39736938 111.94215393 C-26.16887099 111.93753936 -31.94004064 111.91397961 -37.71142578 111.87768555 C-44.38320922 111.83584093 -51.05469484 111.81836313 -57.72660196 111.8150658 C-64.84099137 111.81146827 -71.9552739 111.79261001 -79.0696187 111.76794553 C-81.11719716 111.76171872 -83.16476749 111.75808151 -85.21235275 111.75491142 C-89.02109955 111.74590072 -92.82952366 111.72354048 -96.63818359 111.69702148 C-97.77274994 111.69635681 -98.90731628 111.69569214 -100.07626343 111.69500732 C-101.62797241 111.68004463 -101.62797241 111.68004463 -103.21102905 111.66477966 C-104.11099295 111.66012916 -105.01095684 111.65547865 -105.93819237 111.65068722 C-108.21875 111.390625 -108.21875 111.390625 -111.21875 109.390625 C-112.34375 106.265625 -112.34375 106.265625 -112.21875 102.390625 C-111.02685547 100.61376953 -111.02685547 100.61376953 -109.3359375 98.7734375 C-108.69640137 98.07621582 -108.05686523 97.37899414 -107.39794922 96.66064453 C-102.55736585 91.61832499 -97.58068181 86.7173041 -92.6015625 81.8125 C-91.75335938 80.97203125 -90.90515625 80.1315625 -90.03125 79.265625 C-89.27457031 78.52054687 -88.51789063 77.77546875 -87.73828125 77.0078125 C-85.83876469 75.03467127 -84.06405244 73.05401345 -82.29077148 70.97363281 C-76.59386222 64.41668486 -70.37701469 58.34231667 -64.25390625 52.1875 C-63.5862921 51.51581032 -62.91867794 50.84412064 -62.23083305 50.15207672 C-58.70379244 46.60429813 -55.17357235 43.05971778 -51.64086914 39.51757812 C-48.00670286 35.87230753 -44.38437646 32.21549931 -40.76450443 28.55604172 C-37.96323461 25.72858817 -35.15307787 22.91009396 -32.34048271 20.09391022 C-31.00115827 18.74973305 -29.665197 17.40219566 -28.33278084 16.05117035 C-26.46696889 14.16090577 -24.58880694 12.28378055 -22.70727539 10.40917969 C-22.16728912 9.85638336 -21.62730286 9.30358704 -21.07095337 8.73403931 C-14.86368741 2.60925616 -8.7177131 -0.25622687 0 0 Z " fill="#EB2C2D" transform="translate(192.21875,7.609375)"/>
<path d="M0 0 C3.61486988 0.74054155 5.09486639 1.27239563 8.02880859 3.62646484 C9.57642835 7.17101331 9.28622951 8.67400281 8.23217773 12.38256836 C6.51098743 14.55355986 4.88264723 16.35708789 2.90551758 18.26098633 C2.35090851 18.81471924 1.79629944 19.36845215 1.22488403 19.93896484 C-0.60758526 21.76286942 -2.45701131 23.56852017 -4.30688477 25.37475586 C-5.59022401 26.64621639 -6.87238252 27.91886969 -8.15341187 29.19265747 C-11.52988815 32.54439207 -14.92064149 35.88129662 -18.31506348 39.21484375 C-23.07832635 43.89779075 -27.8222295 48.60035752 -32.56796265 53.30105591 C-35.09261328 55.80169017 -37.62267297 58.29663982 -40.15737915 60.78707886 C-41.03835345 61.65684577 -41.03835345 61.65684577 -41.93712521 62.54418373 C-43.07403288 63.66365804 -44.21614925 64.77787113 -45.36381626 65.88631248 C-48.34751435 68.80345785 -50.61805529 71.63867801 -52.8828125 75.16235352 C-55.39622 78.08248882 -56.79193085 78.38665611 -60.67980957 79.04586792 C-65.87686704 79.41534852 -71.05957062 79.282636 -76.26391602 79.16381836 C-78.18202856 79.14888556 -80.10017176 79.13750345 -82.01832581 79.1295166 C-87.05135287 79.09906396 -92.08251409 79.02056129 -97.11480713 78.93188477 C-102.25605022 78.84984419 -107.39759675 78.81346632 -112.53930664 78.77319336 C-122.61629546 78.68755952 -132.69190333 78.55113661 -142.76782227 78.38256836 C-140.65121169 69.07130754 -132.77725934 60.43718785 -124.90942383 55.20239258 C-120.07718689 52.62882087 -115.58027235 53.05755314 -110.26000977 53.57397461 C-108.81879509 53.71059509 -108.81879509 53.71059509 -107.34846497 53.84997559 C-105.32434993 54.05043588 -103.30041194 54.25269072 -101.27664185 54.456604 C-89.11429121 55.62464636 -76.83702522 56.71942467 -66.65724945 48.84669876 C-56.88508339 40.67873046 -48.30976023 31.07842568 -40.20776367 21.28617477 C-37.75506334 18.32673198 -35.26553645 15.40158233 -32.74047852 12.50366211 C-32.25886513 11.95045288 -31.77725174 11.39724365 -31.28104401 10.82727051 C-22.24745416 0.7264253 -13.53871601 -1.53038916 0 0 Z " fill="#EB2C2D" transform="translate(302.767822265625,6.617431640625)"/>
<path d="M0 0 C1.45385566 -0.00305443 2.90770755 -0.00918701 4.36153895 -0.01812416 C8.34817193 -0.03375378 12.33348492 -0.00581166 16.31994975 0.02932227 C20.62184266 0.05957723 24.92366232 0.04932011 29.22563171 0.04400635 C36.67619372 0.04033746 44.12632632 0.06228273 51.57678032 0.10167122 C62.34878334 0.15858272 73.12057893 0.17679356 83.892716 0.18558716 C101.37004704 0.20090414 118.84714926 0.24747935 136.32435608 0.31370544 C153.30090694 0.37796749 170.27739563 0.4275121 187.25404358 0.45726013 C188.82393815 0.46001873 188.82393815 0.46001873 190.42554777 0.46283305 C195.67606195 0.47196838 200.92657657 0.48081432 206.17709148 0.48951638 C249.72918647 0.56207278 293.28103192 0.68535552 336.832901 0.84178162 C334.64781545 5.50554917 332.26292335 9.06943875 327.832901 11.84178162 C323.12691712 12.8604512 318.45623851 12.75830096 313.665802 12.68356323 C312.21194634 12.68661766 310.75809445 12.69275024 309.30426306 12.7016874 C305.31763007 12.71731701 301.33231708 12.68937489 297.34585226 12.65424097 C293.04395934 12.623986 288.74213968 12.63424312 284.44017029 12.63955688 C276.98960828 12.64322577 269.53947568 12.6212805 262.08902168 12.58189201 C251.31701866 12.52498052 240.54522308 12.50676967 229.773086 12.49797607 C212.29575496 12.48265909 194.81865274 12.43608389 177.34144592 12.36985779 C160.36489506 12.30559574 143.38840637 12.25605114 126.41175842 12.2263031 C124.84186385 12.2235445 124.84186385 12.2235445 123.24025423 12.22073018 C117.98974005 12.21159486 112.73922543 12.20274891 107.48871052 12.19404685 C63.93661553 12.12149045 20.38477008 11.99820771 -23.167099 11.84178162 C-18.03448877 0.88692399 -11.50307065 -0.17946451 0 0 Z " fill="#EB2C2D" transform="translate(31.167098999023438,214.15821838378906)"/>
<path d="M0 0 C3.91075925 1.98968453 5.57689098 3.36533646 8 7 C8.7425 6.21625 9.485 5.4325 10.25 4.625 C15.15086532 -0.05309871 18.74614324 -0.38131357 25.37109375 -0.2578125 C30.10169114 0.20610938 32.93428192 2.56592044 36 6 C38.69350138 14.33915163 38.22633375 22.9022886 38.125 31.5625 C38.11494923 33.06314506 38.10582709 34.56379665 38.09765625 36.06445312 C38.07581091 39.70977281 38.0413969 43.35484376 38 47 C34.04 47 30.08 47 26 47 C25.970271 45.72153198 25.970271 45.72153198 25.93994141 44.41723633 C25.86160496 41.23941676 25.77490335 38.06196418 25.68261719 34.88452148 C25.64445712 33.51221419 25.60958204 32.13981129 25.578125 30.76733398 C25.53219318 28.7886771 25.47326363 26.81033558 25.4140625 24.83203125 C25.3826416 23.64327393 25.3512207 22.4545166 25.31884766 21.22973633 C25.0100289 18.10158672 24.3293088 15.82886241 23 13 C19.38870073 12.66406518 17.43962694 12.75021196 14.25 14.5625 C8.92858933 20.32736156 9.59607787 28.51757386 9.375 35.9375 C9.33632812 37.00291016 9.29765625 38.06832031 9.2578125 39.16601562 C9.16414211 41.7770778 9.08100935 44.38851435 9 47 C5.04 47 1.08 47 -3 47 C-3.02505615 46.04109863 -3.0501123 45.08219727 -3.07592773 44.09423828 C-3.1699862 40.54201523 -3.27021058 36.98998844 -3.37231445 33.43798828 C-3.41566926 31.89962347 -3.45734395 30.36121037 -3.49731445 28.82275391 C-3.55500398 26.6134586 -3.61870179 24.40440652 -3.68359375 22.1953125 C-3.70030624 21.50567413 -3.71701874 20.81603577 -3.73423767 20.10549927 C-3.80806995 16.42885736 -3.80806995 16.42885736 -5 13 C-8.28926495 12.49803706 -8.28926495 12.49803706 -12 13 C-15.04191641 15.42583207 -16.77083674 18.31251021 -18 22 C-18.14939774 23.91765594 -18.24810283 25.83946522 -18.31640625 27.76171875 C-18.35830078 28.87998047 -18.40019531 29.99824219 -18.44335938 31.15039062 C-18.48267578 32.31763672 -18.52199219 33.48488281 -18.5625 34.6875 C-18.60568359 35.86634766 -18.64886719 37.04519531 -18.69335938 38.25976562 C-18.79951094 41.17303626 -18.90026629 44.0865026 -19 47 C-22.96 47 -26.92 47 -31 47 C-31 31.82 -31 16.64 -31 1 C-27.04 1 -23.08 1 -19 1 C-18.67 2.32 -18.34 3.64 -18 5 C-17.21625 4.360625 -16.4325 3.72125 -15.625 3.0625 C-10.69527126 -0.81085829 -6.12230727 -0.63899963 0 0 Z " fill="#45545E" transform="translate(141,143)"/>
<path d="M0 0 C5.04588328 3.63772981 8.84192447 7.92884543 10.6875 13.9375 C11.62487529 23.67633595 11.82615021 32.79198337 5.6875 40.9375 C0.87406826 45.87435307 -4.3072457 47.11357578 -11.08984375 47.30078125 C-13.3125 46.9375 -13.3125 46.9375 -20.3125 43.9375 C-20.6425 50.2075 -20.9725 56.4775 -21.3125 62.9375 C-25.2725 62.9375 -29.2325 62.9375 -33.3125 62.9375 C-33.3125 42.1475 -33.3125 21.3575 -33.3125 -0.0625 C-29.6825 -0.0625 -26.0525 -0.0625 -22.3125 -0.0625 C-21.9825 0.9275 -21.6525 1.9175 -21.3125 2.9375 C-20.714375 2.463125 -20.11625 1.98875 -19.5 1.5 C-13.97223818 -2.4484013 -6.2453559 -2.00322736 0 0 Z M-20.0625 14.625 C-22.17892765 18.54039115 -22.91600585 22.59775424 -21.8046875 26.90625 C-20.52708352 30.08008725 -19.19031015 33.0189599 -16.3125 34.9375 C-12.6260656 36.0843907 -10.78780392 36.10525433 -7.125 34.8125 C-3.88340614 32.65143743 -2.7065146 31.57742702 -1.3125 27.9375 C-0.62185312 22.8386502 -0.74101454 19.08047092 -3.0625 14.4375 C-5.16403451 12.10246166 -6.34965399 10.86338938 -9.3125 9.9375 C-14.24995481 9.9375 -16.54826902 11.23627727 -20.0625 14.625 Z " fill="#46555F" transform="translate(221.3125,144.0625)"/>
<path d="M0 0 C0.8257251 0.20423584 1.6514502 0.40847168 2.50219727 0.61889648 C1.9202491 4.16285589 0.67302987 5.81923495 -1.85253906 8.33007812 C-2.56029984 9.04084 -3.26806061 9.75160187 -3.99726868 10.48390198 C-4.76701523 11.24130173 -5.53676178 11.99870148 -6.32983398 12.77905273 C-7.11798996 13.56533554 -7.90614594 14.35161835 -8.71818542 15.16172791 C-10.38675454 16.82357379 -12.05891793 18.48181747 -13.734375 20.13671875 C-16.29674883 22.66800701 -18.84836474 25.20974328 -21.39819336 27.75366211 C-23.02062033 29.36691598 -24.64364756 30.97956647 -26.26733398 32.59155273 C-27.03100784 33.35097672 -27.7946817 34.1104007 -28.58149719 34.89283752 C-29.29871445 35.60044724 -30.0159317 36.30805695 -30.75488281 37.03710938 C-31.38252029 37.65791885 -32.01015778 38.27872833 -32.65681458 38.91835022 C-37.17015096 43.08738156 -39.97224888 44.04733838 -46.10717773 43.91186523 C-46.83398743 43.90762039 -47.56079712 43.90337555 -48.30963135 43.89900208 C-50.62273778 43.88225778 -52.93496128 43.84461534 -55.24780273 43.80639648 C-56.8194047 43.79134407 -58.39102038 43.77765663 -59.96264648 43.76538086 C-63.80803688 43.73236844 -67.6527703 43.68061704 -71.49780273 43.61889648 C-68.997407 29.18918564 -45.33324602 10.74925216 -34.18969727 2.31610107 C-23.98433033 -4.11825042 -11.26184053 -2.37671969 0 0 Z " fill="#EB2C2D" transform="translate(265.497802734375,7.381103515625)"/>
<path d="M0 0 C5.2044124 3.93504352 9.30234689 8.38470382 10.5625 14.9375 C10.5625 18.5675 10.5625 22.1975 10.5625 25.9375 C0.6625 25.9375 -9.2375 25.9375 -19.4375 25.9375 C-16.73218318 31.93327466 -16.73218318 31.93327466 -11.53515625 34.60546875 C-5.81785045 35.51044267 0.42176137 33.33651136 5.5625 30.9375 C9.47683278 36.03799423 9.47683278 36.03799423 9.8125 39.5625 C7.83422286 43.32122658 4.42642102 44.47508833 0.5625 45.9375 C-5.97915201 47.9143014 -13.20001121 47.76865639 -19.48828125 45.0390625 C-25.18821267 41.81785877 -30.12393363 37.73398157 -32.03515625 31.30078125 C-33.48904311 22.76096039 -33.49006074 14.26519043 -28.4375 6.9375 C-20.84051451 -1.41558357 -10.784118 -3.33327284 0 0 Z M-18.4375 12.9375 C-18.7675 13.9275 -19.0975 14.9175 -19.4375 15.9375 C-13.8275 15.9375 -8.2175 15.9375 -2.4375 15.9375 C-3.05162818 12.02324929 -3.05162818 12.02324929 -5.1875 10.1875 C-10.54534244 7.21092087 -13.91849187 9.34283444 -18.4375 12.9375 Z " fill="#46555E" transform="translate(305.4375,144.0625)"/>
<path d="M0 0 C4.16496295 3.44062157 6.92791853 7.01830263 7.875 12.375 C7.95798675 14.92135479 7.99139258 17.43893883 7.97265625 19.984375 C7.9712413 20.71118469 7.96982635 21.43799438 7.96836853 22.18682861 C7.96278792 24.49959494 7.95023904 26.81226312 7.9375 29.125 C7.93248249 30.69661318 7.92792002 32.26822789 7.92382812 33.83984375 C7.91282485 37.68493343 7.89557361 41.5299501 7.875 45.375 C4.245 45.375 0.615 45.375 -3.125 45.375 C-3.455 44.055 -3.785 42.735 -4.125 41.375 C-4.888125 42.014375 -5.65125 42.65375 -6.4375 43.3125 C-10.75761064 46.62793375 -14.83293666 46.91004317 -20.125 46.375 C-25.3127861 44.73220107 -28.1505688 42.951048 -31.125 38.375 C-32.69340852 33.66977445 -32.67395539 29.84851184 -30.9375 25.1875 C-26.85229093 18.84838247 -22.17332167 17.57872369 -15.0859375 15.96875 C-11.76714065 15.30323929 -8.48752966 14.75710564 -5.125 14.375 C-6.00144433 12.19771927 -6.00144433 12.19771927 -8.125 10.375 C-13.92636441 9.29435369 -18.00913091 10.57345264 -23.125 13.375 C-26.125 12.375 -26.125 12.375 -27.875 9.5625 C-29.47228534 5.48942239 -29.47228534 5.48942239 -28.125 2.375 C-20.74933351 -2.83135282 -8.08426811 -4.13775443 0 0 Z M-19.125 28.375 C-20.47089166 31.27596594 -20.47089166 31.27596594 -19.125 33.5625 C-17.1434381 35.67723899 -17.1434381 35.67723899 -13.75 36 C-9.91460262 35.68611408 -9.91460262 35.68611408 -7.25 32.625 C-5.451608 29.87451811 -4.75270304 28.4467383 -4.125 25.375 C-9.86889224 25.03036647 -14.17018673 25.03050104 -19.125 28.375 Z " fill="#46555E" transform="translate(92.125,144.625)"/>
<path d="M0 0 C0 16.83 0 33.66 0 51 C8.58 51 17.16 51 26 51 C26 54.96 26 58.92 26 63 C13.46 63 0.92 63 -12 63 C-12.23043715 55.63113213 -12.42914927 48.27488334 -12.54931641 40.90527344 C-12.59942234 38.40256274 -12.66752979 35.90014211 -12.75439453 33.3984375 C-13.49687085 11.45607867 -13.49687085 11.45607867 -9.79980469 6.07324219 C-3.84652778 0 -3.84652778 0 0 0 Z " fill="#45545F" transform="translate(30,127)"/>
<path d="M0 0 C0.33 16.83 0.66 33.66 1 51 C2.65 51 4.3 51 6 51 C6 54.96 6 58.92 6 63 C-2.99189919 63.4860486 -2.99189919 63.4860486 -7.5 61.3125 C-11.29246041 57.80447412 -12.07100138 54.59129286 -12.38574219 49.55200195 C-12.56466469 44.82769078 -12.64391413 40.10053035 -12.70019531 35.37329102 C-12.73326037 33.34124856 -12.78777531 31.30943625 -12.86425781 29.27856445 C-13.52831664 11.52076516 -13.52831664 11.52076516 -9.79101562 6.37646484 C-3.54825991 0 -3.54825991 0 0 0 Z " fill="#46555E" transform="translate(362,127)"/>
<path d="M0 0 C0.00586624 0.59468582 0.01173248 1.18937164 0.01777649 1.80207825 C0.08163122 7.98270755 0.16602993 14.1628123 0.26245117 20.34301758 C0.29573856 22.65056449 0.32375849 24.95819357 0.34643555 27.26586914 C0.37991108 30.57994662 0.43222398 33.89326845 0.48828125 37.20703125 C0.49467117 38.2414888 0.5010611 39.27594635 0.50764465 40.3417511 C0.53733589 41.78290535 0.53733589 41.78290535 0.56762695 43.25317383 C0.57873001 44.09922684 0.58983307 44.94527985 0.60127258 45.81697083 C1.08619823 48.47193456 1.86501742 49.39229543 4 51 C4.66 51 5.32 51 6 51 C6 54.96 6 58.92 6 63 C-2.88625592 63.35545024 -2.88625592 63.35545024 -6.9375 62.0625 C-12.18941337 56.81058663 -12.5075767 48.56429328 -12.64453125 41.50390625 C-12.66400314 40.63031967 -12.68347504 39.75673309 -12.70353699 38.85667419 C-12.73602552 37.0223369 -12.75994925 35.18782941 -12.77563477 33.35327148 C-12.81239878 30.57016227 -12.91850722 27.79485184 -13.02539062 25.01367188 C-13.30486303 11.22827388 -13.30486303 11.22827388 -9.78662109 6.48779297 C-3.44048798 0 -3.44048798 0 0 0 Z " fill="#46545E" transform="translate(336,127)"/>
<path d="M0 0 C0 4.29 0 8.58 0 13 C-2.10375 13.3403125 -2.10375 13.3403125 -4.25 13.6875 C-7.46758504 14.42496847 -8.86598519 14.88660285 -11.4375 17.0625 C-16.23417158 26.08024256 -15.59106935 37.02424445 -16 47 C-19.96 47 -23.92 47 -28 47 C-27.67 31.82 -27.34 16.64 -27 1 C-23.37 1 -19.74 1 -16 1 C-15.67 2.98 -15.34 4.96 -15 7 C-14.2575 6.21625 -13.515 5.4325 -12.75 4.625 C-8.06985373 0.15758765 -6.7717858 0 0 0 Z " fill="#46545E" transform="translate(268,143)"/>
</svg>
