<?xml version="1.0" encoding="UTF-8"?>
<svg version="1.1" xmlns="http://www.w3.org/2000/svg" width="208" height="152">
<path d="M0 0 C1.20785156 -0.020625 2.41570312 -0.04125 3.66015625 -0.0625 C16.85033033 -0.119293 29.68335778 2.25875566 39.734375 11.39453125 C47.11115157 19.29629739 49.15314825 26.56544429 48.78515625 37.29296875 C48.05208896 44.36532272 45.39570022 49.61634684 40.3125 54.5625 C27.94620354 64.03170314 12.71270062 64.58438615 -2.1875 64.4375 C-3.60872232 64.43064129 -5.02994637 64.42413318 -6.45117188 64.41796875 C-16.52928529 64.35513492 -26.57579073 64.03160517 -36.625 63.25 C-30.82682366 72.20633197 -24.62473567 76.1316031 -14.3828125 78.84375 C-3.98103692 80.37602289 6.79085899 79.8755566 16.85546875 76.93359375 C20.61685446 75.91306274 23.49825563 75.76540695 27.375 76.25 C29.875 77.75 29.875 77.75 31.375 80.25 C32.22421592 86.93757539 32.22421592 86.93757539 29.69921875 90.83984375 C20.94403514 99.91874844 2.41683022 101.30791618 -9.6875 101.625 C-26.4043567 101.20178844 -41.35430248 97.19005132 -53.56640625 85.37109375 C-60.64527163 77.80297633 -63.38109472 70.34757377 -65.625 60.25 C-72.225 59.26 -78.825 58.27 -85.625 57.25 C-85.191875 58.735 -84.75875 60.22 -84.3125 61.75 C-77.84662256 85.61216673 -77.84662256 85.61216673 -79.625 94.25 C-82.13425911 97.97586959 -83.79066218 98.99211376 -88.0625 100.3125 C-92.5891638 100.23308485 -94.15733398 99.11887466 -97.625 96.25 C-98.86398833 93.75269578 -99.71944553 91.6609846 -100.51171875 89.03515625 C-100.74027054 88.34240097 -100.96882233 87.64964569 -101.20429993 86.93589783 C-101.92703669 84.73400125 -102.62089004 82.52434922 -103.3125 80.3125 C-104.01993494 78.10625814 -104.73335471 75.90215651 -105.45283508 73.69981384 C-105.89735173 72.33343518 -106.33414882 70.96451247 -106.7618866 69.5927887 C-107.9768042 65.79381194 -109.5275954 62.62862287 -111.625 59.25 C-111.625 58.59 -111.625 57.93 -111.625 57.25 C-121.33769671 53.28284219 -130.57219069 51.74936261 -141.01171875 51.16015625 C-147.83149106 50.67302966 -153.73884188 49.22635057 -158.625 44.1875 C-160.39615262 38.98473918 -160.64503021 33.39077099 -158.93359375 28.12109375 C-156.71558218 23.82427636 -153.90962888 21.35189341 -149.625 19.25 C-142.812789 17.69341077 -136.5928121 18.6269676 -129.828125 19.9453125 C-128.8080838 20.13322861 -127.7880426 20.32114471 -126.73709106 20.51475525 C-123.44744334 21.1232238 -120.16136262 21.74905609 -116.875 22.375 C-114.61956333 22.79493697 -112.36386501 23.21347097 -110.10791016 23.63061523 C-105.65802011 24.45393468 -101.20909816 25.28220496 -96.76074219 26.11376953 C-88.85272181 27.58576505 -80.92976753 28.96338826 -73 30.3125 C-71.81180664 30.51568848 -70.62361328 30.71887695 -69.39941406 30.92822266 C-66.80825081 31.37066477 -64.21682958 31.81148167 -61.625 32.25 C-61.16246826 31.50524414 -60.69993652 30.76048828 -60.22338867 29.99316406 C-59.6069751 29.01057617 -58.99056152 28.02798828 -58.35546875 27.015625 C-57.44510864 25.55817871 -57.44510864 25.55817871 -56.51635742 24.07128906 C-47.8454263 11.13708484 -34.161781 5.23854989 -19.625 1.25 C-13.08061281 -0.0169843 -6.64550969 0.0278346 0 0 Z M-32.625 34.25 C-33.285 35.24 -33.945 36.23 -34.625 37.25 C-23.78554367 38.71267363 -13.06735834 39.46230564 -2.125 39.5 C-1.05266113 39.50902344 0.01967773 39.51804687 1.12451172 39.52734375 C8.07384865 39.50154575 14.5861541 38.72979312 21.375 37.25 C21.705 35.6 22.035 33.95 22.375 32.25 C15.61320941 25.92445397 7.58178293 24.70346242 -1.375 24.8125 C-2.24608398 24.81934814 -3.11716797 24.82619629 -4.01464844 24.83325195 C-14.29689632 25.0869821 -24.56236892 27.49939813 -32.625 34.25 Z " fill="#5A43CB" transform="translate(159.625,-0.25)"/>
<path d="M0 0 C1.01749329 0.18886276 2.03498657 0.37772552 3.08331299 0.5723114 C6.31165213 1.17239284 9.53867606 1.77921033 12.765625 2.38671875 C16.98919404 3.17657344 21.21330009 3.96352716 25.4375 4.75 C26.99574242 5.0410965 26.99574242 5.0410965 28.58546448 5.33807373 C36.87845977 6.8809004 45.18443423 8.34059236 53.50152588 9.74763489 C59.40307342 10.75517603 65.18456658 11.99130272 71 13.4140625 C76.6158728 14.64344398 82.31620471 15.34790582 88.015625 16.07421875 C87.21125 16.98171875 86.406875 17.88921875 85.578125 18.82421875 C82.4835438 23.08361422 82.38095347 27.05827542 82.25390625 32.20703125 C82.00471708 35.20547145 81.18302709 37.3239525 80.015625 40.07421875 C50.87659906 38.09922974 50.87659906 38.09922974 38.015625 36.07421875 C38.19738281 36.68265625 38.37914063 37.29109375 38.56640625 37.91796875 C45.95153369 63.67123368 45.95153369 63.67123368 44.015625 73.07421875 C41.50636589 76.80008834 39.84996282 77.81633251 35.578125 79.13671875 C31.0514612 79.0573036 29.48329102 77.94309341 26.015625 75.07421875 C24.77663667 72.57691453 23.92117947 70.48520335 23.12890625 67.859375 C22.90035446 67.16661972 22.67180267 66.47386444 22.43632507 65.76011658 C21.71358831 63.55822 21.01973496 61.34856797 20.328125 59.13671875 C19.62069006 56.93047689 18.90727029 54.72637526 18.18778992 52.52403259 C17.74327327 51.15765393 17.30647618 49.78873122 16.8787384 48.41700745 C15.6638208 44.61803069 14.1130296 41.45284162 12.015625 38.07421875 C12.015625 37.41421875 12.015625 36.75421875 12.015625 36.07421875 C2.30292829 32.10706094 -6.93156569 30.57358136 -17.37109375 29.984375 C-24.19086606 29.49724841 -30.09821688 28.05056932 -34.984375 23.01171875 C-36.75552762 17.80895793 -37.00440521 12.21498974 -35.29296875 6.9453125 C-32.84563862 2.20425036 -29.16517861 -0.86941308 -24.11334229 -2.54716492 C-16.39762248 -3.91933139 -7.59826107 -1.44371505 0 0 Z " fill="#FE0000" transform="translate(35.984375,20.92578125)"/>
<path d="M0 0 C2.5 1.5 2.5 1.5 4 4 C4.84921592 10.68757539 4.84921592 10.68757539 2.32421875 14.58984375 C-6.43096486 23.66874844 -24.95816978 25.05791618 -37.0625 25.375 C-44.78779974 25.19534187 -52.54485426 24.04430412 -60 22 C-60.33 21.34 -60.66 20.68 -61 20 C-58.72913854 13.3239155 -54.38469361 5.38551429 -48 2 C-45.75932525 2.01406929 -43.64948198 2.30299676 -41.43505859 2.64331055 C-31.15376202 4.14932361 -20.45792624 3.58866306 -10.51953125 0.68359375 C-6.75814554 -0.33693726 -3.87674437 -0.48459305 0 0 Z " fill="#D2DA00" transform="translate(187,76)"/>
<path d="M0 0 C4.22749591 2.22499785 6.71498237 4.2895333 8.24707031 8.84033203 C8.9974518 12.02713099 9.61425995 15.21419938 10.1875 18.4375 C10.40341797 19.52353516 10.61933594 20.60957031 10.84179688 21.72851562 C14.06133112 38.74605379 14.06133112 38.74605379 10.3125 44.3125 C6.75479221 46.65907322 4.64193027 47.32485843 0.375 47.25 C-4.15902849 44.93710657 -6.27937191 42.87738174 -7.93060303 38.02050781 C-8.13397278 37.35374023 -8.33734253 36.68697266 -8.546875 36 C-8.77779846 35.30487305 -9.00872192 34.60974609 -9.24664307 33.89355469 C-9.97600164 31.68496246 -10.67619555 29.46842684 -11.375 27.25 C-12.0942414 25.03398497 -12.81931832 22.81996354 -13.54620361 20.60644531 C-13.99500999 19.23267984 -14.43827577 17.85708818 -14.87518311 16.47949219 C-15.90916237 13.2471267 -17.10324404 10.2758786 -18.625 7.25 C-18.45382014 4.42553236 -17.92930814 3.52282799 -15.8125 1.625 C-15.090625 1.17125 -14.36875 0.7175 -13.625 0.25 C-13.026875 -0.1625 -12.42875 -0.575 -11.8125 -1 C-7.78809288 -2.37979673 -3.97914122 -1.13689749 0 0 Z " fill="#FF5B00" transform="translate(67.625,52.75)"/>
<path d="M0 0 C4.47570569 0.22692359 8.94908493 0.46750862 13.421875 0.74609375 C15.95033536 0.90092873 18.41799234 0.9961297 20.953125 0.97265625 C24.37207877 1.01449659 26.48143875 1.47719694 28.91015625 3.92578125 C30.13273606 5.51176058 31.31477229 7.1298654 32.453125 8.77734375 C35.96388283 13.82184175 40.46899438 15.83097819 46 18 C45.61328125 18.44730469 45.2265625 18.89460938 44.828125 19.35546875 C43.74387586 20.61416392 42.66334183 21.87606593 41.5859375 23.140625 C40.35780251 24.5805074 39.11863195 26.010981 37.875 27.4375 C35.44923118 30.75271739 33.73253978 34.28609824 32 38 C20.5402161 35.15537279 11.70273749 27.59672979 5.52734375 17.62109375 C2.4678629 11.92136121 0.91053177 6.3873124 0 0 Z " fill="#01C5A5" transform="translate(94,59)"/>
<path d="M0 0 C0.804375 0.185625 1.60875 0.37125 2.4375 0.5625 C3.283125 0.706875 4.12875 0.85125 5 1 C5.33 0.67 5.66 0.34 6 0 C8.4375 -0.1875 8.4375 -0.1875 11 0 C11.66 0.66 12.32 1.32 13 2 C13.99 1.34 14.98 0.68 16 0 C18.8828125 -0.23046875 18.8828125 -0.23046875 22.125 -0.1875 C23.20007813 -0.18105469 24.27515625 -0.17460938 25.3828125 -0.16796875 C28 0 28 0 29 1 C29.30593196 4.07366678 29.27840183 7.1629792 29.3125 10.25 C29.34150391 11.10980469 29.37050781 11.96960938 29.40039062 12.85546875 C29.44142642 16.95273502 29.31213565 19.42459105 27.328125 23.08203125 C24.47062484 25.43611276 23.09802036 25.59188929 19.4375 25.4375 C18.01244141 25.40462891 18.01244141 25.40462891 16.55859375 25.37109375 C14 25 14 25 11 23 C11.33 21.68 11.66 20.36 12 19 C13.65 19 15.3 19 17 19 C16.21625 18.608125 15.4325 18.21625 14.625 17.8125 C11.55405397 15.69208488 10.83776453 14.60238746 10 11 C10.375 7.6875 10.375 7.6875 11 5 C9.35 5.33 7.7 5.66 6 6 C5.67 9.96 5.34 13.92 5 18 C3.02 18 1.04 18 -1 18 C-1.02690844 15.37493198 -1.04679404 12.75013827 -1.0625 10.125 C-1.07087891 9.37863281 -1.07925781 8.63226563 -1.08789062 7.86328125 C-1.11328125 2.2265625 -1.11328125 2.2265625 0 0 Z M16 7 C16.33 8.65 16.66 10.3 17 12 C18.65 12.33 20.3 12.66 22 13 C22.66 11.68 23.32 10.36 24 9 C22.63676257 6.9600281 22.63676257 6.9600281 21 5 C18.67642489 4.81509993 18.67642489 4.81509993 16 7 Z " fill="#FF0000" transform="translate(136,127)"/>
<path d="M0 0 C2.60112278 0.90290773 4.97242615 2.05945224 7.421875 3.31640625 C8.31390625 3.77144531 9.2059375 4.22648437 10.125 4.6953125 C11.13820312 5.21931641 11.13820312 5.21931641 12.171875 5.75390625 C11.78515625 6.20121094 11.3984375 6.64851563 11 7.109375 C9.91575086 8.36807017 8.83521683 9.62997218 7.7578125 10.89453125 C6.52967751 12.33441365 5.29050695 13.76488725 4.046875 15.19140625 C1.62110618 18.50662364 -0.09558522 22.04000449 -1.828125 25.75390625 C-7.86093291 24.13727145 -11.778934 22.58681163 -15.828125 17.75390625 C-15.168125 17.75390625 -14.508125 17.75390625 -13.828125 17.75390625 C-13.828125 16.76390625 -13.828125 15.77390625 -13.828125 14.75390625 C-13.168125 14.75390625 -12.508125 14.75390625 -11.828125 14.75390625 C-11.745625 14.23828125 -11.663125 13.72265625 -11.578125 13.19140625 C-10.12025681 8.45333463 -6.14830777 -0.82765682 0 0 Z " fill="#45D24E" transform="translate(127.828125,71.24609375)"/>
<path d="M0 0 C4.95 0 9.9 0 15 0 C15 1.65 15 3.3 15 5 C11.7 5 8.4 5 5 5 C5 6.32 5 7.64 5 9 C7.97 9 10.94 9 14 9 C14 10.65 14 12.3 14 14 C11.03 14 8.06 14 5 14 C5 14.99 5 15.98 5 17 C5.71027344 16.98839844 6.42054687 16.97679687 7.15234375 16.96484375 C8.07144531 16.95582031 8.99054688 16.94679687 9.9375 16.9375 C10.85402344 16.92589844 11.77054688 16.91429687 12.71484375 16.90234375 C15 17 15 17 16 18 C16 19.65 16 21.3 16 23 C10.72 23 5.44 23 0 23 C0 15.41 0 7.82 0 0 Z " fill="#FF0000" transform="translate(79,122)"/>
<path d="M0 0 C2.4375 1.5625 2.4375 1.5625 4 4 C4.75 7.75 4.75 7.75 5 11 C-0.445 11.495 -0.445 11.495 -6 12 C-3.03 12 -0.06 12 3 12 C3.33 13.32 3.66 14.64 4 16 C0.94472089 18.31460539 -0.61147757 19.0069379 -4.5 18.9375 C-8.37347619 17.89996173 -10.29073577 16.94831696 -13 14 C-14.32228013 10.19844462 -14.20009167 8.52023834 -12.75 4.75 C-9.5306296 -0.30901063 -5.65182895 -0.9001905 0 0 Z M-6 5 C-2 6 -2 6 -2 6 Z " fill="#FF0000" transform="translate(188,127)"/>
<path d="M0 0 C3.20460914 2.13640609 3.86085805 3.45413543 4.8125 7.1875 C4.874375 8.115625 4.93625 9.04375 5 10 C3.33657163 11.66342837 1.2174291 11.36048097 -1.0625 11.5625 C-1.98160156 11.64628906 -2.90070313 11.73007813 -3.84765625 11.81640625 C-4.55792969 11.87699219 -5.26820312 11.93757812 -6 12 C-3.03 12 -0.06 12 3 12 C3.33 13.32 3.66 14.64 4 16 C0.94893297 18.38364611 -1.2499862 19.27792157 -5.0625 19 C-8.08366116 18.45744743 -9.03512143 17.97102482 -11.5 15.9375 C-13.44371399 12.1310601 -13.95390877 9.18706857 -13 5 C-9.34058275 -0.48912588 -6.15377764 -0.87911109 0 0 Z M-6 5 C-2 6 -2 6 -2 6 Z " fill="#FF0000" transform="translate(129,127)"/>
<path d="M0 0 C2.35487205 0.33643979 2.35487205 0.33643979 6.03515625 0.25390625 C6.03515625 5.86390625 6.03515625 11.47390625 6.03515625 17.25390625 C-6.35400531 18.75149721 -6.35400531 18.75149721 -10.96484375 15.25390625 C-12.68447035 11.81465305 -12.34704339 8.02226063 -11.96484375 4.25390625 C-9.12206912 -1.16090257 -5.67414296 -0.86369421 0 0 Z M-5.77734375 5.37890625 C-7.24884121 7.26743833 -7.24884121 7.26743833 -6.65234375 9.94140625 C-6.42546875 10.70453125 -6.19859375 11.46765625 -5.96484375 12.25390625 C-4.12783586 13.02632894 -4.12783586 13.02632894 -1.96484375 13.25390625 C-0.02829427 12.23420307 -0.02829427 12.23420307 1.03515625 10.25390625 C0.80471761 7.59924576 0.80471761 7.59924576 0.03515625 5.25390625 C-2.95499373 4.11123267 -2.95499373 4.11123267 -5.77734375 5.37890625 Z " fill="#FF0000" transform="translate(60.96484375,127.74609375)"/>
<path d="M0 0 C5.54361702 3.28510638 5.54361702 3.28510638 6.515625 6.9375 C6.70836485 10.57202293 6.16153936 12.69630601 4.4375 15.9375 C1.21001041 18.66845273 -0.79294691 19 -5 19 C-8.603693 17.77610426 -10.41693542 16.93797345 -12.4375 13.6875 C-13.13205095 10.36908992 -12.96874011 8.25219893 -12 5 C-8.34929928 0.64271205 -5.70472237 -0.6582372 0 0 Z M-4 5 C-4.99 5.66 -5.98 6.32 -7 7 C-6.67 8.98 -6.34 10.96 -6 13 C-4.16299211 13.77242269 -4.16299211 13.77242269 -2 14 C-0.08333333 12.91666667 -0.08333333 12.91666667 1 11 C1.07642709 8.88850355 1.07642709 8.88850355 0 7 C-1.9837767 5.71563266 -1.9837767 5.71563266 -4 5 Z " fill="#FF0000" transform="translate(28,127)"/>
<path d="M0 0 C2.08153935 -0.13536022 4.16561206 -0.23215465 6.25 -0.3125 C7.41015625 -0.37050781 8.5703125 -0.42851563 9.765625 -0.48828125 C13 0 13 0 15.40625 2.09375 C17.3369733 5.61448072 17.41114883 7.82406657 17.25 11.8125 C17.21390625 12.97394531 17.1778125 14.13539063 17.140625 15.33203125 C17.07101563 16.65267578 17.07101563 16.65267578 17 18 C15.35 18 13.7 18 12 18 C11.67 14.04 11.34 10.08 11 6 C9.35 6.33 7.7 6.66 6 7 C5.67 10.63 5.34 14.26 5 18 C3.02 18 1.04 18 -1 18 C-1.02690844 15.37493198 -1.04679404 12.75013827 -1.0625 10.125 C-1.07087891 9.37863281 -1.07925781 8.63226563 -1.08789062 7.86328125 C-1.11328125 2.2265625 -1.11328125 2.2265625 0 0 Z " fill="#FF0000" transform="translate(97,127)"/>
<path d="M0 0 C2.0234375 0.37109375 2.0234375 0.37109375 4.0234375 2.37109375 C4.0234375 3.69109375 4.0234375 5.01109375 4.0234375 6.37109375 C2.3734375 6.37109375 0.7234375 6.37109375 -0.9765625 6.37109375 C0.2609375 6.89703125 0.2609375 6.89703125 1.5234375 7.43359375 C4.0234375 9.37109375 4.0234375 9.37109375 4.6484375 12.87109375 C4.0234375 16.37109375 4.0234375 16.37109375 1.9609375 18.37109375 C-1.7793703 19.64439002 -4.16139668 19.2895596 -7.9765625 18.37109375 C-8.9665625 17.71109375 -9.9565625 17.05109375 -10.9765625 16.37109375 C-10.6465625 15.05109375 -10.3165625 13.73109375 -9.9765625 12.37109375 C-7.9965625 12.37109375 -6.0165625 12.37109375 -3.9765625 12.37109375 C-4.9459375 11.95859375 -5.9153125 11.54609375 -6.9140625 11.12109375 C-9.9765625 9.37109375 -9.9765625 9.37109375 -11.1015625 7.49609375 C-10.9765625 5.37109375 -10.9765625 5.37109375 -9.6015625 2.62109375 C-6.24921736 -0.25234494 -4.27497346 -0.12072184 0 0 Z " fill="#FF0000" transform="translate(203.9765625,126.62890625)"/>
<path d="M0 0 C6.6 0 13.2 0 20 0 C20 1.65 20 3.3 20 5 C17.69 5 15.38 5 13 5 C13 10.94 13 16.88 13 23 C11.02 23 9.04 23 7 23 C7 17.06 7 11.12 7 5 C4.69 5 2.38 5 0 5 C0 3.35 0 1.7 0 0 Z " fill="#FF0000" transform="translate(0,122)"/>
<path d="M0 0 C1.98 0 3.96 0 6 0 C6 1.98 6 3.96 6 6 C7.98 6 9.96 6 12 6 C11.67 7.32 11.34 8.64 11 10 C9.35 10 7.7 10 6 10 C6.33 12.64 6.66 15.28 7 18 C8.65 18 10.3 18 12 18 C12.33 19.32 12.66 20.64 13 22 C10.41704268 23.68885671 9.07142606 24.00291535 5.9375 23.875 C3 23 3 23 1.125 21.5 C-0.57333168 17.72592959 -0.235105 14.07515329 0 10 C-0.66 10 -1.32 10 -2 10 C-2 8.68 -2 7.36 -2 6 C-1.34 6 -0.68 6 0 6 C0 4.02 0 2.04 0 0 Z " fill="#FF0000" transform="translate(36,122)"/>
<path d="M0 0 C1.65 0.33 3.3 0.66 5 1 C5 8.26 5 15.52 5 23 C3.02 23 1.04 23 -1 23 C-1.02887512 19.35418313 -1.04675585 15.70839537 -1.0625 12.0625 C-1.07087891 11.02158203 -1.07925781 9.98066406 -1.08789062 8.90820312 C-1.09272461 7.42416992 -1.09272461 7.42416992 -1.09765625 5.91015625 C-1.10289307 4.99371338 -1.10812988 4.07727051 -1.11352539 3.13305664 C-1 1 -1 1 0 0 Z " fill="#FF0000" transform="translate(71,122)"/>
<path d="M0 0 C1.32 0.33 2.64 0.66 4 1 C4 6.61 4 12.22 4 18 C2.02 18 0.04 18 -2 18 C-2.05382106 15.37472811 -2.09358313 12.75055287 -2.125 10.125 C-2.14175781 9.37863281 -2.15851563 8.63226563 -2.17578125 7.86328125 C-2.1933959 5.90805539 -2.10320189 3.95257979 -2 2 C-1.34 1.34 -0.68 0.68 0 0 Z " fill="#FF0000" transform="translate(169,127)"/>
<path d="M0 0 C3.37462715 0.54723683 5.08235 1.0549 8 3 C7.40832031 3.53367187 6.81664062 4.06734375 6.20703125 4.6171875 C0.59670037 9.90718954 -3.04165353 14.87915598 -6 22 C-6.66 22 -7.32 22 -8 22 C-7.58878864 16.79132282 -5.58598912 12.95823641 -3.2109375 8.4140625 C-1.84132041 5.68366457 -0.84889001 2.93252913 0 0 Z " fill="#67D620" transform="translate(132,75)"/>
<path d="M0 0 C-0.99453526 3.25484267 -1.73398368 4.78855113 -4.4375 6.9375 C-7.41138898 9.33111796 -8.37173557 11.59544709 -10 15 C-10.99 15.66 -11.98 16.32 -13 17 C-13.33 17.99 -13.66 18.98 -14 20 C-14.99 19.67 -15.98 19.34 -17 19 C-16.34 18.67 -15.68 18.34 -15 18 C-15 17.01 -15 16.02 -15 15 C-14.34 15 -13.68 15 -13 15 C-12.9175 14.484375 -12.835 13.96875 -12.75 13.4375 C-10.87120566 7.33141841 -7.12873738 0 0 0 Z " fill="#17CF6B" transform="translate(129,71)"/>
<path d="M0 0 C0.66 0.33 1.32 0.66 2 1 C1.76925781 1.51046875 1.53851563 2.0209375 1.30078125 2.546875 C-1.58600954 8.98225052 -4.3085021 15.4808391 -7 22 C-8.32 21.67 -9.64 21.34 -11 21 C-9.51730247 13.39001027 -4.4065031 6.27079287 0 0 Z " fill="#57D43A" transform="translate(131,74)"/>
<path d="M0 0 C-2.87036171 1.03333021 -4.40413117 0.93505035 -7.5 0.4375 C-11.18847255 -0.02355907 -12.069586 -0.07964865 -15 2 C-17.04451206 3.62343389 -19.02287362 5.29248176 -21 7 C-21 6.34 -21 5.68 -21 5 C-21.66 5 -22.32 5 -23 5 C-21.63016497 1.83884224 -21.0109362 1.0072908 -18 -1 C-11.70625532 -2.74826241 -6.05745881 -2.36388637 0 0 Z " fill="#FF1100" transform="translate(69,52)"/>
<path d="M0 0 C0 6.70909767 -5.03539576 11.94480884 -9 17 C-9.99 16.34 -10.98 15.68 -12 15 C-10.625 12.5 -10.625 12.5 -9 10 C-8.34 10 -7.68 10 -7 10 C-6.773125 9.0925 -6.54625 8.185 -6.3125 7.25 C-4.81872023 3.55111676 -3.24599423 2.22094342 0 0 Z " fill="#32D15D" transform="translate(126,76)"/>
<path d="M0 0 C0.66 0.33 1.32 0.66 2 1 C0.57282151 2.67551353 -0.86708482 4.34019309 -2.3125 6 C-3.51326172 7.3921875 -3.51326172 7.3921875 -4.73828125 8.8125 C-7 11 -7 11 -10 11 C-8.67367286 5.36310966 -4.53368235 3.06814317 0 0 Z " fill="#1357FF" transform="translate(184,17)"/>
<path d="M0 0 C1.65 0.33 3.3 0.66 5 1 C4.06725891 2.12894876 3.12859878 3.25300876 2.1875 4.375 C1.66542969 5.00148438 1.14335937 5.62796875 0.60546875 6.2734375 C-1 8 -1 8 -4 10 C-3.43454163 6.04179141 -2.19097652 3.3340947 0 0 Z M-6 10 C-5.01 10.495 -5.01 10.495 -4 11 C-4.66 11.66 -5.32 12.32 -6 13 C-6 12.01 -6 11.02 -6 10 Z " fill="#78D704" transform="translate(135,76)"/>
<path d="M0 0 C2.125 0.375 2.125 0.375 4 1 C4.5625 2.9375 4.5625 2.9375 5 5 C4 6 4 6 1.4375 6.0625 C0.2309375 6.0315625 0.2309375 6.0315625 -1 6 C-1.625 4.125 -1.625 4.125 -2 2 C-1.34 1.34 -0.68 0.68 0 0 Z " fill="#FF0000" transform="translate(169,120)"/>
<path d="M0 0 C0 0.66 0 1.32 0 2 C0.66 2.33 1.32 2.66 2 3 C1.01 3.99 0.02 4.98 -1 6 C-3.475 5.01 -3.475 5.01 -6 4 C-2.25 0 -2.25 0 0 0 Z " fill="#344DFD" transform="translate(183,25)"/>
</svg>
