<?xml version="1.0" encoding="UTF-8"?>
<svg version="1.1" xmlns="http://www.w3.org/2000/svg" width="236" height="157">
<path d="M0 0 C1.0415625 -0.03287109 2.083125 -0.06574219 3.15625 -0.09960938 C10.82176074 -0.15352281 10.82176074 -0.15352281 14.58203125 2.61328125 C15.25621094 3.54527344 15.93039063 4.47726563 16.625 5.4375 C17.34300781 6.33726562 18.06101563 7.23703125 18.80078125 8.1640625 C19.50589844 9.12054688 20.21101563 10.07703125 20.9375 11.0625 C21.70578125 12.1040625 22.4740625 13.145625 23.265625 14.21875 C24.43351562 15.81203125 24.43351562 15.81203125 25.625 17.4375 C26.40359375 18.4790625 27.1821875 19.520625 27.984375 20.59375 C28.71140625 21.5734375 29.4384375 22.553125 30.1875 23.5625 C30.84878906 24.45195312 31.51007812 25.34140625 32.19140625 26.2578125 C33.625 28.4375 33.625 28.4375 33.625 30.4375 C34.285 30.4375 34.945 30.4375 35.625 30.4375 C36.285 31.4275 36.945 32.4175 37.625 33.4375 C37.63958252 32.54442139 37.65416504 31.65134277 37.66918945 30.73120117 C37.73027077 27.41532722 37.80442478 24.10028101 37.88745117 20.78491211 C37.92069001 19.35045372 37.94872535 17.91586487 37.97143555 16.48120117 C38.00500271 14.41789193 38.05731413 12.35577697 38.11328125 10.29296875 C38.13946533 9.05184326 38.16564941 7.81071777 38.19262695 6.53198242 C38.625 3.4375 38.625 3.4375 39.94018555 1.53393555 C42.76732131 -0.30589444 45.86775291 0.00666148 49.125 0.0625 C50.14013672 0.04509766 50.14013672 0.04509766 51.17578125 0.02734375 C56.04690269 0.05616695 56.04690269 0.05616695 58.3175354 1.55395508 C60.25668468 4.34751047 60.00642297 6.59542383 60.01318359 9.97265625 C60.01844055 10.63151825 60.02369751 11.29038025 60.02911377 11.96920776 C60.04231412 14.1463799 60.03357626 16.32282047 60.0234375 18.5 C60.02545824 20.01310364 60.02836968 21.52620633 60.03213501 23.03930664 C60.03655838 26.21021804 60.03012711 29.38087589 60.01611328 32.55175781 C59.9990211 36.61745892 60.00886225 40.68256593 60.02683067 44.74824524 C60.03766832 47.87264487 60.03422232 50.99690351 60.0264473 54.12130737 C60.02444522 55.62043325 60.02690485 57.1195719 60.03388596 58.61868286 C60.04150046 60.71358166 60.02989789 62.80751678 60.01318359 64.90234375 C60.01079681 66.094646 60.00841003 67.28694824 60.00595093 68.51538086 C59.625 71.4375 59.625 71.4375 58.23677063 73.32466125 C56.05225891 74.83294614 54.59606531 74.78089615 51.95703125 74.73046875 C51.06435547 74.72080078 50.17167969 74.71113281 49.25195312 74.70117188 C48.32318359 74.67603516 47.39441406 74.65089844 46.4375 74.625 C45.49712891 74.61146484 44.55675781 74.59792969 43.58789062 74.58398438 C41.26634962 74.54863096 38.94596347 74.49928674 36.625 74.4375 C36.51325439 73.84727051 36.40150879 73.25704102 36.28637695 72.64892578 C35.35607981 68.06806593 34.36960019 64.29321005 31.8125 60.3125 C31.28785156 59.48492187 30.76320312 58.65734375 30.22265625 57.8046875 C28.76949179 55.65158808 27.27900402 53.53715794 25.75 51.4375 C23.625 48.4375 23.625 48.4375 23.625 46.4375 C22.965 46.4375 22.305 46.4375 21.625 46.4375 C17.625 41.02573529 17.625 41.02573529 17.625 38.4375 C16.965 38.4375 16.305 38.4375 15.625 38.4375 C14.2578125 36.64453125 14.2578125 36.64453125 12.75 34.25 C11.00435559 31.52884842 9.28742735 29.01997593 7.25 26.5 C5.625 24.4375 5.625 24.4375 5.625 22.4375 C4.965 22.4375 4.305 22.4375 3.625 22.4375 C3.37234375 23.15292969 3.1196875 23.86835938 2.859375 24.60546875 C1.51829972 27.68230285 -0.11831971 30.06275953 -2.125 32.75 C-2.83398438 33.70132813 -3.54296875 34.65265625 -4.2734375 35.6328125 C-4.96695312 36.55835938 -5.66046875 37.48390625 -6.375 38.4375 C-6.96539063 39.25992188 -7.55578125 40.08234375 -8.1640625 40.9296875 C-8.68742187 41.65414062 -9.21078125 42.37859375 -9.75 43.125 C-10.44222656 44.08986328 -10.44222656 44.08986328 -11.1484375 45.07421875 C-11.55320312 45.52410156 -11.95796875 45.97398438 -12.375 46.4375 C-13.035 46.4375 -13.695 46.4375 -14.375 46.4375 C-14.45089768 40.2079242 -14.50353504 33.97846705 -14.53979492 27.74853516 C-14.55490645 25.62804712 -14.5753964 23.50759046 -14.60131836 21.38720703 C-14.63759786 18.34399689 -14.65470242 15.30119897 -14.66796875 12.2578125 C-14.68345261 11.30568878 -14.69893646 10.35356506 -14.71488953 9.37258911 C-14.71522942 8.05144608 -14.71522942 8.05144608 -14.71557617 6.70361328 C-14.72223801 5.92639923 -14.72889984 5.14918518 -14.73576355 4.34841919 C-14.61671158 3.71781586 -14.49765961 3.08721252 -14.375 2.4375 C-9.82758612 -0.59410925 -5.35162217 0.02958513 0 0 Z " fill="#47C1BA" transform="translate(26.375,1.5625)"/>
<path d="M0 0 C0.99 0 1.98 0 3 0 C4.70916793 2.09587086 6.20257765 4.12985425 7.6875 6.375 C8.10322266 6.97828125 8.51894531 7.5815625 8.94726562 8.203125 C12 12.71455511 12 12.71455511 12 15 C12.66 15 13.32 15 14 15 C15.52443248 16.99164558 16.92957616 18.97576923 18.3125 21.0625 C19.12180954 22.26341615 19.93170069 23.46394057 20.7421875 24.6640625 C21.13116211 25.24317383 21.52013672 25.82228516 21.92089844 26.41894531 C23.20533541 28.3008489 24.56401236 30.1198906 25.9375 31.9375 C30.76189158 39.10099053 30.76118811 46.61753339 30 55 C28.44099116 60.89895238 25.69616314 65.06832853 21 69 C20.4740625 69.44214844 19.948125 69.88429688 19.40625 70.33984375 C12.43024204 75.80966818 4.70755595 76.86534718 -4 76 C-12.0078828 74.3251487 -18.86535865 70.29971282 -23.93359375 63.79296875 C-28.47383972 56.15936838 -29.04273074 47.70976127 -27.0625 39.25 C-25.07328672 33.15222471 -21.24044193 28.60229595 -17.28222656 23.64453125 C-15.02632998 20.75121073 -12.92811865 17.74652471 -10.8125 14.75 C-9.97444027 13.57517689 -9.13591308 12.40068708 -8.296875 11.2265625 C-6.90324385 9.26884254 -5.51599443 7.30652983 -4.140625 5.3359375 C-3.61984375 4.60632812 -3.0990625 3.87671875 -2.5625 3.125 C-1.91474609 2.20074219 -1.91474609 2.20074219 -1.25390625 1.2578125 C-0.84011719 0.84273437 -0.42632813 0.42765625 0 0 Z " fill="#FAB641" transform="translate(30,29)"/>
<path d="M0 0 C1.65 0 3.3 0 5 0 C5 5.94 5 11.88 5 18 C6.98 18 8.96 18 11 18 C11.103125 16.906875 11.20625 15.81375 11.3125 14.6875 C12 11 12 11 13.0625 9.0625 C16.28767724 7.29385442 19.48550634 7.26838362 23 8 C26 10.1875 26 10.1875 28 13 C28.3125 15.8125 28.3125 15.8125 28 18 C31.465 17.505 31.465 17.505 35 17 C35.33 14.03 35.66 11.06 36 8 C37.65 8 39.3 8 41 8 C41 11.3 41 14.6 41 18 C42.32 18 43.64 18 45 18 C45 14.7 45 11.4 45 8 C46.98 8 48.96 8 51 8 C51 11.3 51 14.6 51 18 C51.99 17.67 52.98 17.34 54 17 C54.33 14.03 54.66 11.06 55 8 C56.32 8 57.64 8 59 8 C59.495 12.455 59.495 12.455 60 17 C61.65 17.33 63.3 17.66 65 18 C65 12.39 65 6.78 65 1 C67.97 0.505 67.97 0.505 71 0 C71.0580476 3.27075883 71.09361165 6.54138524 71.125 9.8125 C71.14175781 10.74126953 71.15851563 11.67003906 71.17578125 12.62695312 C71.18222656 13.51962891 71.18867188 14.41230469 71.1953125 15.33203125 C71.20578613 16.15421143 71.21625977 16.9763916 71.22705078 17.82348633 C71 20 71 20 69 23 C67.14050293 23.36076355 67.14050293 23.36076355 64.85742188 23.34057617 C64.00313599 23.34034958 63.1488501 23.34012299 62.26867676 23.33988953 C61.34470093 23.32440567 60.4207251 23.30892181 59.46875 23.29296875 C58.52189331 23.28872391 57.57503662 23.28447906 56.5994873 23.28010559 C53.56603871 23.26327983 50.53324839 23.22563747 47.5 23.1875 C45.45443671 23.17245671 43.40886298 23.15876769 41.36328125 23.14648438 C36.86182961 23.11692569 32.36071832 23.07424752 27.85949707 23.02018738 C25.79824917 22.99780972 23.73883378 23.00178448 21.67749023 23.01586914 C18.5975031 23.03657538 15.51752915 23.04958196 12.4375 23.0625 C11.35791016 23.07087891 10.27832031 23.07925781 9.16601562 23.08789062 C8.14056641 23.09111328 7.11511719 23.09433594 6.05859375 23.09765625 C5.11298584 23.10289307 4.16737793 23.10812988 3.19311523 23.11352539 C1 23 1 23 0 22 C-0.08700342 20.36527118 -0.10701063 18.72685945 -0.09765625 17.08984375 C-0.09443359 16.10048828 -0.09121094 15.11113281 -0.08789062 14.09179688 C-0.07951172 13.05087891 -0.07113281 12.00996094 -0.0625 10.9375 C-0.05798828 9.89271484 -0.05347656 8.84792969 -0.04882812 7.77148438 C-0.03699913 5.1809334 -0.02051689 2.59049441 0 0 Z M18 13 C17.34 14.32 16.68 15.64 16 17 C17.06645115 18.29633621 17.06645115 18.29633621 19.5625 18.0625 C20.366875 18.041875 21.17125 18.02125 22 18 C22 16.68 22 15.36 22 14 C20.68 13.67 19.36 13.34 18 13 Z " fill="#0B4A91" transform="translate(90,80)"/>
<path d="M0 0 C1.98 0 3.96 0 6 0 C6 3.3 6 6.6 6 10 C7.423125 9.2575 7.423125 9.2575 8.875 8.5 C13.497602 6.54174905 18.05609825 6.08860246 23 7 C25.625 9.125 25.625 9.125 27 12 C27.25 15.3125 27.25 15.3125 27 18 C27.99 18 28.98 18 30 18 C29.9175 16.9275 29.835 15.855 29.75 14.75 C30 11 30 11 31.5 8.5625 C35.02126244 6.36171098 37.95439643 6.19585339 42 7 C44.5 8.5625 44.5 8.5625 46 11 C46.25 14.75 46.25 14.75 46 18 C46.99 17.67 47.98 17.34 49 17 C49.33 14.03 49.66 11.06 50 8 C51.65 8 53.3 8 55 8 C55.05429959 9.74965358 55.09292823 11.49979787 55.125 13.25 C55.14820313 14.22453125 55.17140625 15.1990625 55.1953125 16.203125 C55 19 55 19 53 23 C34.19 23 15.38 23 -4 23 C-4 21.35 -4 19.7 -4 18 C-2.68 18 -1.36 18 0 18 C0 12.06 0 6.12 0 0 Z M4 18 C9.28 18 14.56 18 20 18 C20.66 16.68 21.32 15.36 22 14 C20.21674778 11.83727446 20.21674778 11.83727446 17.9375 11.625 C12.83995574 12.27575033 7.65661331 14.34338669 4 18 Z M36 12 C35.67 13.65 35.34 15.3 35 17 C37.475 17.495 37.475 17.495 40 18 C40.33 16.35 40.66 14.7 41 13 C39.35 12.67 37.7 12.34 36 12 Z " fill="#0C4B92" transform="translate(179,80)"/>
<path d="M0 0 C4.31665644 2.2852887 7.20299264 4.40764786 9 9 C9.68031111 14.01414487 9.55368338 17.82874671 7.375 22.4375 C4.69262265 25.33164398 2.73720238 26.72935119 -1 28 C-5.37008075 27.82162936 -8.63696439 26.81767848 -12 24 C-14.41700766 19.63005015 -15.82802503 14.9681502 -15 10 C-11.68464409 3.00091529 -8.23738303 -0.98848596 0 0 Z " fill="#FCE075" transform="translate(25,53)"/>
<path d="M0 0 C9 0 9 0 11.9609375 2.265625 C12.75757812 3.25046875 13.55421875 4.2353125 14.375 5.25 C15.18710938 6.22453125 15.99921875 7.1990625 16.8359375 8.203125 C18.57716129 10.45351531 20.29277944 12.72370592 22 15 C22.33 10.05 22.66 5.1 23 0 C24.98 0 26.96 0 29 0 C29 7.26 29 14.52 29 22 C20 22 20 22 17.546875 20.4609375 C16.95390625 19.77257812 16.3609375 19.08421875 15.75 18.375 C15.10546875 17.65054688 14.4609375 16.92609375 13.796875 16.1796875 C13.20390625 15.46039063 12.6109375 14.74109375 12 14 C11.46890625 13.38382813 10.9378125 12.76765625 10.390625 12.1328125 C9.23526257 10.77623527 8.11314349 9.39142937 7 8 C6.67 12.62 6.34 17.24 6 22 C4.02 22 2.04 22 0 22 C0 14.74 0 7.48 0 0 Z " fill="#0B4B93" transform="translate(63,108)"/>
<path d="M0 0 C0.95003906 -0.02384766 1.90007812 -0.04769531 2.87890625 -0.07226562 C9.74736952 -0.0577752 9.74736952 -0.0577752 13.12109375 2.72265625 C14.66701647 5.90646876 15.06700341 8.0318289 15.0625 11.5625 C15.08441406 12.573125 15.10632813 13.58375 15.12890625 14.625 C14.24459541 18.75544566 12.95188037 20.13649734 9.5 22.5625 C6.28607406 23.19916202 3.20113759 23.12676734 -0.0625 23 C-0.91263672 22.99419922 -1.76277344 22.98839844 -2.63867188 22.98242188 C-6.80274448 22.90077339 -9.87346859 22.79561997 -13.5 20.5625 C-14.96861889 17.62526222 -14.74793404 14.95657643 -14.8125 11.6875 C-14.84988281 10.45257813 -14.88726562 9.21765625 -14.92578125 7.9453125 C-14.5 4.5625 -14.5 4.5625 -13.13671875 2.15234375 C-8.9378373 -0.37942625 -4.80789046 -0.05545057 0 0 Z M-8.5 6.5625 C-8.85685986 8.93052001 -8.85685986 8.93052001 -8.8125 11.5625 C-8.82925781 12.449375 -8.84601563 13.33625 -8.86328125 14.25 C-8.74339844 15.013125 -8.62351563 15.77625 -8.5 16.5625 C-5.29375113 18.69999925 -4.27541897 18.85824999 -0.5625 18.875 C0.71947266 18.90013672 0.71947266 18.90013672 2.02734375 18.92578125 C5.02682339 18.48509941 6.37497373 17.71178457 8.5 15.5625 C9.09086 13.62505801 9.09086 13.62505801 8.9375 11.5625 C8.93556641 10.5415625 8.93556641 10.5415625 8.93359375 9.5 C8.35537865 6.91626404 7.6877015 6.06250631 5.5 4.5625 C2.59917383 4.12384911 2.59917383 4.12384911 -0.5625 4.25 C-1.62597656 4.25386719 -2.68945312 4.25773437 -3.78515625 4.26171875 C-6.64663266 4.29250488 -6.64663266 4.29250488 -8.5 6.5625 Z " fill="#0B4B92" transform="translate(202.5,107.4375)"/>
<path d="M0 0 C1.98 0 3.96 0 6 0 C6 1.32 6 2.64 6 4 C8.97 4 11.94 4 15 4 C15 5.32 15 6.64 15 8 C12.03 8 9.06 8 6 8 C6 10.64 6 13.28 6 16 C7.32 16 8.64 16 10 16 C10 14.68 10 13.36 10 12 C11.98 12 13.96 12 16 12 C15.74438677 14.3431213 15.40729228 16.67843403 15 19 C12.35541621 20.32229189 10.32238699 20.09677194 7.375 20.0625 C6.37210938 20.05347656 5.36921875 20.04445312 4.3359375 20.03515625 C3.56507813 20.02355469 2.79421875 20.01195312 2 20 C-0.40201504 15.80120206 -0.15864149 12.75924459 0 8 C-0.99 8 -1.98 8 -3 8 C-3 8.99 -3 9.98 -3 11 C-4.65 11 -6.3 11 -8 11 C-8 10.01 -8 9.02 -8 8 C-10.47266765 8.34444881 -10.47266765 8.34444881 -13 9 C-14.14814997 11.29629994 -14.30769809 13.07698086 -14.5625 15.625 C-14.64628906 16.44226563 -14.73007813 17.25953125 -14.81640625 18.1015625 C-14.87699219 18.72804687 -14.93757813 19.35453125 -15 20 C-16.65 20 -18.3 20 -20 20 C-20 14.72 -20 9.44 -20 4 C-13.4 4 -6.8 4 0 4 C0 2.68 0 1.36 0 0 Z " fill="#0C4B92" transform="translate(138,110)"/>
<path d="M0 0 C1.98 0 3.96 0 6 0 C6 2.31 6 4.62 6 7 C6.66 6.67 7.32 6.34 8 6 C9.64255791 5.87885079 11.29052478 5.82459233 12.9375 5.8125 C13.81277344 5.79832031 14.68804687 5.78414063 15.58984375 5.76953125 C18 6 18 6 21 8 C21.29296875 11.2578125 21.29296875 11.2578125 21.1875 15.125 C21.16042969 16.40632813 21.13335937 17.68765625 21.10546875 19.0078125 C21.07066406 19.99523437 21.03585938 20.98265625 21 22 C19.35 22 17.7 22 16 22 C15.93941406 21.37351563 15.87882813 20.74703125 15.81640625 20.1015625 C15.73261719 19.28429687 15.64882812 18.46703125 15.5625 17.625 C15.48128906 16.81289062 15.40007812 16.00078125 15.31640625 15.1640625 C15.10909886 12.95727195 15.10909886 12.95727195 14 11 C12.00045254 10.95745644 9.99958364 10.95919217 8 11 C6.33657163 12.66342837 6.63951903 14.7825709 6.4375 17.0625 C6.31181641 18.44115234 6.31181641 18.44115234 6.18359375 19.84765625 C6.12300781 20.55792969 6.06242188 21.26820313 6 22 C4.02 22 2.04 22 0 22 C0 14.74 0 7.48 0 0 Z " fill="#0B4B92" transform="translate(155,108)"/>
<path d="M0 0 C1.32 0 2.64 0 4 0 C4.05789006 3.45826342 4.09355821 6.91640293 4.125 10.375 C4.14175781 11.35984375 4.15851563 12.3446875 4.17578125 13.359375 C4.18222656 14.30039063 4.18867187 15.24140625 4.1953125 16.2109375 C4.20578613 17.08024902 4.21625977 17.94956055 4.22705078 18.84521484 C4 21 4 21 2 23 C-1.3135576 23.44804715 -4.65959863 23.32409862 -8 23.3125 C-8.928125 23.32861328 -9.85625 23.34472656 -10.8125 23.36132812 C-11.699375 23.36197266 -12.58625 23.36261719 -13.5 23.36328125 C-14.72203125 23.36775269 -14.72203125 23.36775269 -15.96875 23.37231445 C-16.6390625 23.24945068 -17.309375 23.12658691 -18 23 C-20.35119399 19.47320901 -20.21443452 17.97120515 -20.125 13.8125 C-20.10695312 12.72582031 -20.08890625 11.63914062 -20.0703125 10.51953125 C-20.04710937 9.68808594 -20.02390625 8.85664062 -20 8 C-18.35 8 -16.7 8 -15 8 C-14.67 10.97 -14.34 13.94 -14 17 C-9.71 17.33 -5.42 17.66 -1 18 C-1.01160156 16.78441406 -1.02320312 15.56882812 -1.03515625 14.31640625 C-1.04453278 12.73177236 -1.05363313 11.14713682 -1.0625 9.5625 C-1.07087891 8.76005859 -1.07925781 7.95761719 -1.08789062 7.13085938 C-1.0965143 5.08704779 -1.0522815 3.04316098 -1 1 C-0.67 0.67 -0.34 0.34 0 0 Z " fill="#0C4B91" transform="translate(83,80)"/>
<path d="M0 0 C1.2375 -0.02578125 2.475 -0.0515625 3.75 -0.078125 C7 0.25 7 0.25 8.9140625 1.453125 C10.34860867 3.8268345 10.39966811 5.48717132 10.375 8.25 C10.38273437 9.11625 10.39046875 9.9825 10.3984375 10.875 C10 13.25 10 13.25 8.9453125 15.0390625 C5.94907537 16.90419003 2.91684755 16.68357453 -0.5 16.625 C-1.17675781 16.63660156 -1.85351562 16.64820313 -2.55078125 16.66015625 C-5.3886922 16.64336388 -7.50801913 16.55404417 -9.953125 15.04296875 C-11.35399835 12.64371178 -11.33140554 10.95121817 -11.25 8.1875 C-11.23453125 7.30964844 -11.2190625 6.43179688 -11.203125 5.52734375 C-11 3.25 -11 3.25 -10 1.25 C-6.51972258 0.08990753 -3.66678357 0.04583479 0 0 Z M-5 4.25 C-5 6.89 -5 9.53 -5 12.25 C-2.03 12.25 0.94 12.25 4 12.25 C5.01540112 8.14776415 5.01540112 8.14776415 4 4.25 C1.03 4.25 -1.94 4.25 -5 4.25 Z " fill="#0B4A91" transform="translate(105,113.75)"/>
<path d="M0 0 C0.7734375 0.08507813 1.546875 0.17015625 2.34375 0.2578125 C4.92187586 0.99575432 5.93445494 1.70391392 7.5 3.875 C8.24591019 7.84587484 7.94636548 11.65493434 6.5625 15.4375 C3.64108837 17.47363538 1.14902094 17.31441503 -2.34375 17.30859375 C-5.05896405 16.76259962 -5.93763612 16.15958869 -7.5 13.875 C-7.8984375 11.28125 -7.8984375 11.28125 -7.875 8.375 C-7.88273438 7.4159375 -7.89046875 6.456875 -7.8984375 5.46875 C-7.5 2.875 -7.5 2.875 -6.2578125 1.0234375 C-3.94832965 -0.48542463 -2.71202275 -0.35256296 0 0 Z " fill="#FDEBA9" transform="translate(22.5,58.125)"/>
<path d="M0 0 C-0.56371414 3.26954202 -1.49962266 4.82575883 -4 7 C-3.34 7.5775 -2.68 8.155 -2 8.75 C0 11 0 11 0 15 C-4.30600398 17.15300199 -10.08295855 16.18496133 -14.8125 16.1875 C-16.59624023 16.20586914 -16.59624023 16.20586914 -18.41601562 16.22460938 C-19.56392578 16.22654297 -20.71183594 16.22847656 -21.89453125 16.23046875 C-22.94487549 16.23457764 -23.99521973 16.23868652 -25.07739258 16.24291992 C-28.13043834 15.98915829 -30.28671761 15.41085824 -33 14 C-34 11.625 -34 11.625 -34 9 C-32.85546875 6.8515625 -32.85546875 6.8515625 -31 5 C-28.30078125 4.609375 -28.30078125 4.609375 -25.3125 4.75 C-24.31863281 4.78609375 -23.32476562 4.8221875 -22.30078125 4.859375 C-21.54152344 4.90578125 -20.78226563 4.9521875 -20 5 C-20 7.64 -20 10.28 -20 13 C-14.72 13 -9.44 13 -4 13 C-5.65 11.35 -7.3 9.7 -9 8 C-9 6.68 -9 5.36 -9 4 C-2.25 0 -2.25 0 0 0 Z M-29 8 C-29.59070014 9.94603274 -29.59070014 9.94603274 -30 12 C-28.87465895 13.35618499 -28.87465895 13.35618499 -25.9375 13.0625 C-24.968125 13.041875 -23.99875 13.02125 -23 13 C-23 11.68 -23 10.36 -23 9 C-25.97 8.505 -25.97 8.505 -29 8 Z " fill="#0A4991" transform="translate(194,54)"/>
<path d="M0 0 C0.66 0 1.32 0 2 0 C2.33 2.31 2.66 4.62 3 7 C8.61 7.33 14.22 7.66 20 8 C20 5.36 20 2.72 20 0 C20.99 0 21.98 0 23 0 C23 2.64 23 5.28 23 8 C23.99 8 24.98 8 26 8 C26 5.36 26 2.72 26 0 C26.99 0 27.98 0 29 0 C29 2.64 29 5.28 29 8 C29.99 8 30.98 8 32 8 C32 5.36 32 2.72 32 0 C32.99 0 33.98 0 35 0 C35.36680362 7.45834018 35.36680362 7.45834018 33.91015625 9.609375 C31.03469781 11.70275579 28.66243228 11.33749914 25.14453125 11.29296875 C24.48289474 11.28872391 23.82125824 11.28447906 23.13957214 11.28010559 C21.0301309 11.26333693 18.92165154 11.22569099 16.8125 11.1875 C15.38087319 11.17245068 13.94923138 11.1587627 12.51757812 11.14648438 C9.01140712 11.1134403 5.50579746 11.06167167 2 11 C1.67 12.65 1.34 14.3 1 16 C-1.31 16.33 -3.62 16.66 -6 17 C-6 16.01 -6 15.02 -6 14 C-4.35 13.34 -2.7 12.68 -1 12 C-0.67 8.04 -0.34 4.08 0 0 Z " fill="#0A4A91" transform="translate(199,59)"/>
<path d="M0 0 C6.93 0 13.86 0 21 0 C22.28317892 3.84953676 22.06643637 6.94738135 22 11 C20.68 10.67 19.36 10.34 18 10 C18 7.36 18 4.72 18 2 C16.35 2.66 14.7 3.32 13 4 C12.67 6.31 12.34 8.62 12 11 C11.34 11 10.68 11 10 11 C9.67 8.03 9.34 5.06 9 2 C7.68 2.33 6.36 2.66 5 3 C4.67 5.64 4.34 8.28 4 11 C2.68 10.67 1.36 10.34 0 10 C0 6.7 0 3.4 0 0 Z " fill="#094B94" transform="translate(96,140)"/>
<path d="M0 0 C1.5778125 0.00580078 1.5778125 0.00580078 3.1875 0.01171875 C6 0.3125 6 0.3125 9 2.3125 C9 3.3025 9 4.2925 9 5.3125 C7.68 5.3125 6.36 5.3125 5 5.3125 C5 4.6525 5 3.9925 5 3.3125 C-0.08303686 3.19929144 -0.08303686 3.19929144 -5 4.3125 C-5.04254356 6.31204746 -5.04080783 8.31291636 -5 10.3125 C-4.01732141 11.51811184 -4.01732141 11.51811184 -2.15234375 11.41015625 C-0.1015625 11.37760417 1.94921875 11.34505208 4 11.3125 C4.33 10.6525 4.66 9.9925 5 9.3125 C6.32 9.3125 7.64 9.3125 9 9.3125 C8.67 10.9625 8.34 12.6125 8 14.3125 C5.20251159 15.24499614 3.45679119 15.44726152 0.5625 15.4375 C-0.58025391 15.44136719 -0.58025391 15.44136719 -1.74609375 15.4453125 C-3.98573029 15.31334085 -5.88010058 15.0486409 -8 14.3125 C-9.16343227 11.98563547 -9.19895988 10.46528587 -9.25 7.875 C-9.28867187 6.70130859 -9.28867187 6.70130859 -9.328125 5.50390625 C-9 3.3125 -9 3.3125 -7.859375 1.546875 C-5.20158523 -0.21754006 -3.1616266 -0.05036905 0 0 Z " fill="#0A4992" transform="translate(72,135.6875)"/>
<path d="M0 0 C1.98 0 3.96 0 6 0 C6 7.26 6 14.52 6 22 C4.02 22 2.04 22 0 22 C0 14.74 0 7.48 0 0 Z " fill="#0B4B91" transform="translate(228,108)"/>
<path d="M0 0 C2.05859375 0.796875 2.05859375 0.796875 4.62109375 3.296875 C6.80947849 8.6251161 6.77383417 13.21100578 5.24609375 18.734375 C4.05859375 20.796875 4.05859375 20.796875 1.05859375 22.796875 C-5.47018539 23.7601375 -5.47018539 23.7601375 -8.796875 21.58203125 C-12.06236651 18.28551369 -13.38280552 15.37039956 -13.69140625 10.734375 C-13.44602037 7.16810028 -12.79880214 4.87353532 -10.50390625 2.109375 C-7.13551322 -0.69895268 -4.21522455 -0.82456332 0 0 Z M-9.69921875 3.9453125 C-11.39544336 6.47364729 -11.3407968 8.2724462 -11.31640625 11.296875 C-11.32414063 12.2559375 -11.331875 13.215 -11.33984375 14.203125 C-11.13260841 16.79836348 -11.13260841 16.79836348 -9.69921875 18.61328125 C-6.40328697 20.83254198 -2.74269379 20.40564731 1.05859375 19.796875 C3.35022287 18.49283791 3.35022287 18.49283791 4.05859375 15.796875 C4.83808377 10.15021063 4.83808377 10.15021063 2.81640625 5.07421875 C0.6760702 3.51890789 -0.82143763 3.21007155 -3.44140625 2.921875 C-4.21484375 2.82132813 -4.98828125 2.72078125 -5.78515625 2.6171875 C-7.9882509 2.62869604 -7.9882509 2.62869604 -9.69921875 3.9453125 Z " fill="#FCE58E" transform="translate(25.94140625,55.203125)"/>
<path d="M0 0 C1.65 0 3.3 0 5 0 C5 7.59 5 15.18 5 23 C3.35 23 1.7 23 0 23 C0 15.41 0 7.82 0 0 Z " fill="#0C4C92" transform="translate(164,80)"/>
<path d="M0 0 C9.27734375 -0.09765625 9.27734375 -0.09765625 12 0 C13 1 13 1 13.09765625 3.06640625 C13.08605469 3.89011719 13.07445312 4.71382812 13.0625 5.5625 C13.05347656 6.38878906 13.04445312 7.21507812 13.03515625 8.06640625 C13.02355469 8.70449219 13.01195312 9.34257812 13 10 C10.04335481 11.4783226 7.25770263 11.06032783 4 11 C3.67 11.99 3.34 12.98 3 14 C2.01 14 1.02 14 0 14 C0 9.38 0 4.76 0 0 Z M4 2 C2.98888907 5.04913228 2.98888907 5.04913228 4 8 C5.98 8 7.96 8 10 8 C11.01111093 4.95086772 11.01111093 4.95086772 10 2 C8.02 2 6.04 2 4 2 Z " fill="#0A4A91" transform="translate(119,140)"/>
<path d="M0 0 C3 0.25 3 0.25 5 2.25 C5.265625 4.125 5.265625 4.125 5.25 6.25 C5.25515625 6.95125 5.2603125 7.6525 5.265625 8.375 C5 10.25 5 10.25 3 12.25 C0 12.5625 0 12.5625 -3 12.25 C-5.44897847 8.57653229 -5.31537716 6.58643601 -5 2.25 C-3 0.25 -3 0.25 0 0 Z " fill="#FEF1C2" transform="translate(22,60.75)"/>
<path d="M0 0 C0.9075 0.00257813 1.815 0.00515625 2.75 0.0078125 C4.11125 0.00394531 4.11125 0.00394531 5.5 0 C7.75 0.1328125 7.75 0.1328125 8.75 1.1328125 C8.82205511 2.81890216 8.83386068 4.50781909 8.8125 6.1953125 C8.80347656 7.11441406 8.79445312 8.03351563 8.78515625 8.98046875 C8.77355469 9.69074219 8.76195312 10.40101563 8.75 11.1328125 C7.12509046 11.15979439 5.50005367 11.17920007 3.875 11.1953125 C2.51761719 11.21271484 2.51761719 11.21271484 1.1328125 11.23046875 C-1.25 11.1328125 -1.25 11.1328125 -3.25 10.1328125 C-3.27689216 8.65374358 -3.29634621 7.17453767 -3.3125 5.6953125 C-3.32410156 4.87160156 -3.33570313 4.04789063 -3.34765625 3.19921875 C-3.20972249 0.28054034 -2.91665713 0.17216379 0 0 Z M-0.25 2.1328125 C-0.25 2.7928125 -0.25 3.4528125 -0.25 4.1328125 C1.73 4.1328125 3.71 4.1328125 5.75 4.1328125 C5.75 3.4728125 5.75 2.8128125 5.75 2.1328125 C3.77 2.1328125 1.79 2.1328125 -0.25 2.1328125 Z M-0.25 6.1328125 C0.08 7.1228125 0.41 8.1128125 0.75 9.1328125 C2.4 8.8028125 4.05 8.4728125 5.75 8.1328125 C5.75 7.4728125 5.75 6.8128125 5.75 6.1328125 C3.77 6.1328125 1.79 6.1328125 -0.25 6.1328125 Z " fill="#0B4B92" transform="translate(137.25,139.8671875)"/>
<path d="M0 0 C1.98 0 3.96 0 6 0 C6 5.28 6 10.56 6 16 C4.02 16 2.04 16 0 16 C0 10.72 0 5.44 0 0 Z " fill="#0B4B91" transform="translate(219,114)"/>
<path d="M0 0 C1.50046875 0.00386719 1.50046875 0.00386719 3.03125 0.0078125 C4.0315625 0.00523437 5.031875 0.00265625 6.0625 0 C8.53125 0.1328125 8.53125 0.1328125 9.53125 1.1328125 C9.60304964 2.65209288 9.61517007 4.17448732 9.59375 5.6953125 C9.58472656 6.52160156 9.57570313 7.34789062 9.56640625 8.19921875 C9.55480469 8.83730469 9.54320313 9.47539062 9.53125 10.1328125 C6.38783007 11.70452246 2.97353549 11.36457033 -0.46875 11.1328125 C-1.45875 10.8028125 -2.44875 10.4728125 -3.46875 10.1328125 C-3.49564216 8.65374358 -3.51509621 7.17453767 -3.53125 5.6953125 C-3.54285156 4.87160156 -3.55445312 4.04789063 -3.56640625 3.19921875 C-3.42238977 0.15183003 -3.05698031 0.1644578 0 0 Z M-0.46875 3.1328125 C-0.50938832 4.79898365 -0.511471 6.46669345 -0.46875 8.1328125 C1.84125 8.1328125 4.15125 8.1328125 6.53125 8.1328125 C6.53125 6.1528125 6.53125 4.1728125 6.53125 2.1328125 C2.72503955 1.69433891 2.72503955 1.69433891 -0.46875 3.1328125 Z " fill="#0B4892" transform="translate(85.46875,139.8671875)"/>
<path d="M0 0 C1.32 0 2.64 0 4 0 C4.66 1.98 5.32 3.96 6 6 C6.66 6 7.32 6 8 6 C8.66 4.02 9.32 2.04 10 0 C10.99 0 11.98 0 13 0 C11.42759894 5.86774055 9.9857953 10.13600864 5 14 C4.01 14 3.02 14 2 14 C2 13.01 2 12.02 2 11 C2.99 11 3.98 11 5 11 C4.6390625 10.37351563 4.278125 9.74703125 3.90625 9.1015625 C3.4421875 8.28429687 2.978125 7.46703125 2.5 6.625 C1.80390625 5.40683594 1.80390625 5.40683594 1.09375 4.1640625 C0 2 0 2 0 0 Z " fill="#0A4991" transform="translate(161,140)"/>
<path d="M0 0 C3.96 0 7.92 0 12 0 C13.28317892 3.84953676 13.06643637 6.94738135 13 11 C12.01 11 11.02 11 10 11 C9.67 8.36 9.34 5.72 9 3 C7.35 3 5.7 3 4 3 C3.34 5.64 2.68 8.28 2 11 C1.34 11 0.68 11 0 11 C0 7.37 0 3.74 0 0 Z " fill="#0B4B91" transform="translate(148,140)"/>
<path d="M0 0 C2.54947455 0.87638188 3.74529456 1.61794183 5.25 3.875 C6 6 6 6 6 10 C5.278125 9.814375 4.55625 9.62875 3.8125 9.4375 C0.87173027 8.98004693 -1.14103058 9.26483643 -4 10 C-4.33 8.68 -4.66 7.36 -5 6 C-4.01 5.67 -3.02 5.34 -2 5 C-2 3.68 -2 2.36 -2 1 C-1.34 0.67 -0.68 0.34 0 0 Z " fill="#094690" transform="translate(137,75)"/>
<path d="M0 0 C1.2065625 0.0309375 1.2065625 0.0309375 2.4375 0.0625 C2.81813221 2.3885857 3.15019945 4.72305264 3.4375 7.0625 C2.4375 8.0625 2.4375 8.0625 -0.625 8.125 C-1.594375 8.104375 -2.56375 8.08375 -3.5625 8.0625 C-3.60491723 5.72955225 -3.60342937 3.39547433 -3.5625 1.0625 C-2.5625 0.0625 -2.5625 0.0625 0 0 Z " fill="#FEF6DC" transform="translate(22.5625,62.9375)"/>
<path d="M0 0 C1.32 0 2.64 0 4 0 C4.33 1.98 4.66 3.96 5 6 C2.69 6 0.38 6 -2 6 C-2 4.68 -2 3.36 -2 2 C-1.34 2 -0.68 2 0 2 C0 1.34 0 0.68 0 0 Z " fill="#094294" transform="translate(225,51)"/>
<path d="M0 0 C1.98 0 3.96 0 6 0 C6.33 0.99 6.66 1.98 7 3 C6 4 6 4 2.4375 4.0625 C1.303125 4.041875 0.16875 4.02125 -1 4 C-0.67 2.68 -0.34 1.36 0 0 Z " fill="#084B93" transform="translate(165,53)"/>
<path d="M0 0 C1.98 0 3.96 0 6 0 C6 1.32 6 2.64 6 4 C4.02 4 2.04 4 0 4 C0 2.68 0 1.36 0 0 Z " fill="#0B4C91" transform="translate(219,108)"/>
<path d="M0 0 C1.65 0.33 3.3 0.66 5 1 C4.67 2.32 4.34 3.64 4 5 C2.68 5 1.36 5 0 5 C-0.33 4.01 -0.66 3.02 -1 2 C-0.67 1.34 -0.34 0.68 0 0 Z " fill="#094B92" transform="translate(215,80)"/>
<path d="M0 0 C2.475 0.495 2.475 0.495 5 1 C4.67 2.32 4.34 3.64 4 5 C2.68 5 1.36 5 0 5 C0 3.35 0 1.7 0 0 Z " fill="#0A4891" transform="translate(229,80)"/>
</svg>
